<?xml version="1.0" encoding="UTF-8" standalone="no"?>
<!-- Created with Inkscape (http://www.inkscape.org/) -->

<svg
   width="10.2in"
   height="2.566in"
   viewBox="0 0 259.08 65.176401"
   version="1.1"
   id="svg5"
   inkscape:version="1.2.1 (9c6d41e, 2022-07-14)"
   sodipodi:docname="connortone_shirt_c-hole_recto_1.svg"
   xml:space="preserve"
   inkscape:export-filename="connortone_shirt_c-hole_recto_1_plain.png"
   inkscape:export-xdpi="96"
   inkscape:export-ydpi="96"
   xmlns:inkscape="http://www.inkscape.org/namespaces/inkscape"
   xmlns:sodipodi="http://sodipodi.sourceforge.net/DTD/sodipodi-0.dtd"
   xmlns="http://www.w3.org/2000/svg"
   xmlns:svg="http://www.w3.org/2000/svg"
   xmlns:rdf="http://www.w3.org/1999/02/22-rdf-syntax-ns#"
   xmlns:cc="http://creativecommons.org/ns#"
   xmlns:dc="http://purl.org/dc/elements/1.1/"><title
     id="title63">ConnorTone ID tag</title><sodipodi:namedview
     id="namedview7"
     pagecolor="#ffffff"
     bordercolor="#111111"
     borderopacity="1"
     inkscape:showpageshadow="0"
     inkscape:pageopacity="0"
     inkscape:pagecheckerboard="1"
     inkscape:deskcolor="#d1d1d1"
     inkscape:document-units="mm"
     showgrid="true"
     inkscape:zoom="1.536969"
     inkscape:cx="481.79241"
     inkscape:cy="199.41847"
     inkscape:window-width="2168"
     inkscape:window-height="1199"
     inkscape:window-x="2311"
     inkscape:window-y="174"
     inkscape:window-maximized="0"
     inkscape:current-layer="layer3"><inkscape:grid
       type="xygrid"
       id="grid59"
       originx="0"
       originy="0" /></sodipodi:namedview><defs
     id="defs2" /><g
     inkscape:label="Outlines"
     inkscape:groupmode="layer"
     id="layer1"
     style="fill:#000000;fill-opacity:1;stroke:#000000;stroke-opacity:1;image-rendering:auto" /><g
     inkscape:groupmode="layer"
     id="layer2"
     inkscape:label="Vignette"
     transform="matrix(1,0,0,1.0546259,0,-4.9826546)" /><g
     inkscape:groupmode="layer"
     id="layer3"
     inkscape:label="Text"><rect
       style="fill:none;fill-opacity:1;stroke:#000000;stroke-width:3.17717;stroke-linejoin:round;stroke-miterlimit:4;stroke-dasharray:none;stroke-opacity:1;image-rendering:auto"
       id="rect11829"
       width="255.89078"
       height="61.94379"
       x="1.6507223"
       y="1.6846021"
       ry="6.8103471"
       transform="matrix(0.99999997,-2.3129397e-4,2.4933658e-4,0.99999997,0,0)" /><rect
       style="fill:none;fill-opacity:1;stroke:#000000;stroke-width:2.00048;stroke-linejoin:round;stroke-miterlimit:4;stroke-dasharray:none;stroke-opacity:1;image-rendering:auto"
       id="rect12557"
       width="29.996479"
       height="51.80014"
       x="26.362453"
       y="6.4352689"
       ry="6.5165219"
       transform="matrix(0.99999997,-2.3094451e-4,2.5002535e-4,0.99999997,0,0)" /><path
       style="fill:none;fill-opacity:1;stroke:#000000;stroke-width:2.03415;stroke-linejoin:round;stroke-dasharray:none;stroke-opacity:1;image-rendering:auto"
       id="path1170-9-2-5"
       sodipodi:type="arc"
       sodipodi:cx="13.581493"
       sodipodi:cy="13.437687"
       sodipodi:rx="7.0927539"
       sodipodi:ry="6.9957447"
       sodipodi:start="5.749887"
       sodipodi:end="5.7487992"
       sodipodi:open="true"
       sodipodi:arc-type="arc"
       d="M 19.689312,9.8812155 A 7.0927539,6.9957447 0 0 1 17.188943,19.461 7.0927539,6.9957447 0 0 1 7.475637,16.997434 7.0927539,6.9957447 0 0 1 9.9707229,7.41631 7.0927539,6.9957447 0 0 1 19.685386,9.8746644"
       transform="matrix(0.99999997,-2.3932131e-4,2.4127388e-4,0.99999997,0,0)" /><path
       style="fill:#000000;stroke-width:0.290594;stroke-dasharray:none"
       d="m 42.545829,54.598028 c -4.44047,-1.813758 -8.08139,-7.420195 -9.38366,-14.449309 -0.42583,-2.298435 -0.4719,-13.114621 -0.0665,-15.591007 0.40599,-2.479046 1.41486,-5.501825 2.5726,-7.707839 1.687,-3.214507 3.5328,-5.189012 6.08774,-6.512243 1.46982,-0.761239 1.81859,-0.8507923 3.34887,-0.8598619 2.10564,-0.012525 3.17895,0.4546879 4.02165,1.7504679 0.75947,1.167807 0.83383,2.857257 0.16574,3.765803 -1.10467,1.502267 -3.16474,1.655564 -4.49058,0.334166 -0.97736,-0.974096 -1.18122,-2.083505 -0.60121,-3.27207 0.24199,-0.495878 0.35575,-0.901276 0.2528,-0.900886 -0.38698,0.0015 -2.5832,1.993347 -3.61741,3.28085 -1.50661,1.875574 -2.27745,3.528619 -3.02513,6.487293 -1.57604,6.236487 -1.44662,7.98431 0.81793,11.046706 0.15216,0.205554 0.13535,0.428114 -0.0519,0.695996 -1.67635,2.396786 -2.03898,3.912002 -1.61501,6.74829 0.39666,2.653364 1.52191,6.650474 2.3401,8.312103 0.77423,1.57235 3.77516,4.938782 4.93414,5.535094 0.7107,0.365656 0.7978,0.202584 0.22755,-0.425894 -0.52451,-0.578044 -0.50445,-2.313081 0.0366,-3.148956 1.52496,-2.356755 5.47401,-1.225391 5.48779,1.572193 0.007,1.393735 -1.18991,3.122947 -2.51403,3.632532 -1.12936,0.434633 -3.48952,0.294033 -4.9279,-0.293387 z"
       id="path458" /><g
       aria-label="ConnorTone"
       id="text17738"
       style="font-size:49.7066px;line-height:1.25;stroke-width:1.24267"
       transform="matrix(0.57978802,-1.3869424e-4,1.3925888e-4,0.5774372,9.0714892,0.0792527)"><path
         d="m 119.20347,13.522941 q 3.73771,0 6.50458,2.13583 l 4.22312,13.834357 q -0.14563,0.679582 -0.33979,1.650414 -0.33979,1.310623 -0.87375,2.766871 h -10.09665 q 0.2427,-0.92229 0.2427,-1.650414 0,-2.13583 -2.13583,-2.13583 -1.60187,0 -3.44645,1.553331 -1.45625,1.262081 -2.47562,2.912496 -1.31063,2.184372 -1.21354,3.980411 0.0485,1.747498 1.50479,2.087289 2.66979,0.582499 5.63082,-3.155204 l 7.2327,4.223119 q -6.35895,7.087074 -13.68873,7.087074 -4.3202,0 -7.2327,-2.766871 L 99.398501,34.10458 q 0.09708,-1.310623 0.533958,-2.961038 1.747501,-6.844366 6.941451,-11.989775 5.67937,-5.630826 12.32956,-5.630826 z"
         style="font-family:'Damn Noisy Kids';-inkscape-font-specification:'Damn Noisy Kids, Normal'"
         id="path20031" /><path
         d="m 149.15364,13.620024 q 3.73771,0 6.50458,2.13583 l 4.22312,13.834357 q -0.0971,0.582499 -0.38834,1.698956 -1.69895,6.795824 -6.94144,11.989776 -5.72791,5.679367 -12.32957,5.679367 -4.3202,0 -7.28124,-2.815413 l -3.54354,-11.941234 q 0.0971,-0.970832 0.48542,-2.912496 1.7475,-6.844366 6.94145,-11.989776 5.67936,-5.679367 12.32956,-5.679367 z m -2.47562,16.552686 q -1.60187,0 -3.44645,1.601873 -1.45625,1.262082 -2.47562,2.912496 -1.31063,2.184372 -1.21354,3.980411 0.0485,2.184372 2.08729,2.184372 1.55333,0 3.39791,-1.553331 1.50479,-1.310623 2.52416,-2.961037 1.31062,-2.135831 1.21354,-3.93187 -0.0971,-2.232914 -2.08729,-2.232914 z"
         style="font-family:'Damn Noisy Kids';-inkscape-font-specification:'Damn Noisy Kids, Normal'"
         id="path20033" /><path
         d="m 164.25008,13.765649 13.64019,13.543107 2.37854,-13.591649 7.96082,3.592079 -5.72791,31.454958 -13.97998,-11.50436 -1.9902,11.601443 -7.91229,-3.592079 z"
         style="font-family:'Damn Noisy Kids';-inkscape-font-specification:'Damn Noisy Kids, Normal'"
         id="path20035" /><path
         d="m 193.22942,13.765649 13.64019,13.543107 2.37854,-13.591649 7.96082,3.592079 -5.72791,31.454958 -13.97998,-11.50436 -1.99021,11.601443 -7.91228,-3.592079 z"
         style="font-family:'Damn Noisy Kids';-inkscape-font-specification:'Damn Noisy Kids, Normal'"
         id="path20037" /><path
         d="m 236.3829,13.620024 q 3.7377,0 6.50457,2.13583 l 4.22312,13.834357 q -0.0971,0.582499 -0.38833,1.698956 -1.69896,6.795824 -6.94145,11.989776 -5.72791,5.679367 -12.32957,5.679367 -4.3202,0 -7.28124,-2.815413 l -3.54353,-11.941234 q 0.0971,-0.970832 0.48541,-2.912496 1.7475,-6.844366 6.94145,-11.989776 5.67937,-5.679367 12.32957,-5.679367 z m -2.47562,16.552686 q -1.60188,0 -3.44646,1.601873 -1.45624,1.262082 -2.47562,2.912496 -1.31062,2.184372 -1.21354,3.980411 0.0485,2.184372 2.08729,2.184372 1.55333,0 3.39791,-1.553331 1.50479,-1.310623 2.52417,-2.961037 1.31062,-2.135831 1.21354,-3.93187 -0.0971,-2.232914 -2.08729,-2.232914 z"
         style="font-family:'Damn Noisy Kids';-inkscape-font-specification:'Damn Noisy Kids, Normal'"
         id="path20039" /><path
         d="m 250.36288,30.027085 q -1.35917,0.339792 -2.23291,0.485416 0.63104,-2.863954 1.65041,-7.669573 l 1.65041,-7.669573 q 4.90271,-1.019373 10.7277,-1.796039 2.37854,-0.339791 4.70853,-0.339791 3.34937,0 6.50458,0.679582 l 2.62124,14.174148 q -3.98041,5.14541 -12.47519,10.339361 l 11.84415,1.796039 -3.49499,8.446239 -15.82456,-2.232914 -0.5825,3.252288 -7.96083,-3.543537 z m 8.9802,-1.844581 -1.01938,5.630826 q 1.7475,-0.679582 3.59208,-1.893122 2.47562,-1.650415 2.47562,-2.863955 0,-1.164998 -2.23291,-1.164998 -1.11646,0 -2.81541,0.291249 z"
         style="font-family:'Damn Noisy Kids';-inkscape-font-specification:'Damn Noisy Kids, Normal'"
         id="path20041" /><path
         d="m 293.03095,26.629173 -4.0775,22.086429 -7.96082,-3.64062 3.1552,-17.135186 q -5.33957,1.359165 -8.25207,3.058121 0.92229,-5.096868 2.86396,-15.339146 6.8929,-1.553331 13.93144,-1.844581 2.08728,-0.09708 3.83478,-0.09708 4.02895,0 6.0677,0.485416 l -1.35916,11.892693 q -2.71833,0.194166 -8.20353,0.533957 z"
         style="font-family:'Damn Noisy Kids';-inkscape-font-specification:'Damn Noisy Kids, Normal'"
         id="path20043" /><path
         d="m 319.77737,13.620024 q 3.7377,0 6.50457,2.13583 l 4.22312,13.834357 q -0.0971,0.582499 -0.38833,1.698956 -1.69896,6.795824 -6.94145,11.989776 -5.72791,5.679367 -12.32957,5.679367 -4.3202,0 -7.28124,-2.815413 l -3.54353,-11.941234 q 0.0971,-0.970832 0.48541,-2.912496 1.7475,-6.844366 6.94145,-11.989776 5.67937,-5.679367 12.32957,-5.679367 z m -2.47562,16.552686 q -1.60188,0 -3.44646,1.601873 -1.45624,1.262082 -2.47562,2.912496 -1.31062,2.184372 -1.21354,3.980411 0.0485,2.184372 2.08729,2.184372 1.55333,0 3.39791,-1.553331 1.50479,-1.310623 2.52417,-2.961037 1.31062,-2.135831 1.21354,-3.93187 -0.0971,-2.232914 -2.08729,-2.232914 z"
         style="font-family:'Damn Noisy Kids';-inkscape-font-specification:'Damn Noisy Kids, Normal'"
         id="path20045" /><path
         d="m 334.87381,13.765649 13.64019,13.543107 2.37853,-13.591649 7.96083,3.592079 -5.72791,31.454958 -13.97998,-11.50436 -1.99021,11.601443 -7.91228,-3.592079 z"
         style="font-family:'Damn Noisy Kids';-inkscape-font-specification:'Damn Noisy Kids, Normal'"
         id="path20047" /><path
         d="m 363.0765,15.561688 q 6.8929,-1.50479 13.93143,-1.796039 2.08729,-0.09708 3.83479,-0.09708 4.02895,0 6.0677,0.485416 l -1.35916,11.892692 q -5.29104,0.29125 -7.03854,0.436874 -3.98041,0.339792 -7.03853,0.825208 l -0.53396,2.961037 8.20354,-1.164998 0.8252,6.35895 -10.24228,1.504789 -0.63104,3.689162 q 6.79583,-0.533958 13.05769,-2.475622 0.87375,2.863955 2.66979,7.960823 -8.68894,2.912496 -20.14476,2.669788 -0.48542,-1.262081 -1.31063,-3.883328 l -3.44645,-1.553331 2.47562,-13.543107 q -0.77666,0.339791 -2.23291,1.116457 0.92229,-5.14541 2.9125,-15.387688 z"
         style="font-family:'Damn Noisy Kids';-inkscape-font-specification:'Damn Noisy Kids, Normal'"
         id="path20049" /></g><rect
       style="fill:#000000;fill-opacity:1;stroke:#000000;stroke-width:1.42106;stroke-linejoin:round;stroke-miterlimit:4;stroke-dasharray:none;stroke-opacity:1;image-rendering:auto"
       id="rect12561"
       width="63.577137"
       height="22.873919"
       x="168.86452"
       y="35.166988"
       ry="7.359026"
       transform="matrix(0.99999997,-2.6131675e-4,2.2089376e-4,0.99999998,0,0)" /><rect
       style="fill:#000000;fill-opacity:1;stroke:#000000;stroke-width:1.47893;stroke-linejoin:round;stroke-miterlimit:4;stroke-dasharray:none;stroke-opacity:1;image-rendering:auto"
       id="rect12561-3"
       width="68.519142"
       height="22.987982"
       x="64.039032"
       y="35.081573"
       ry="7.3957224"
       transform="matrix(0.99999997,-2.4467013e-4,2.3592271e-4,0.99999997,0,0)" /><path
       style="fill:none;fill-opacity:1;stroke:#000000;stroke-width:2.03415;stroke-linejoin:round;stroke-dasharray:none;stroke-opacity:1;image-rendering:auto"
       id="path1170-9-2-5-0"
       sodipodi:type="arc"
       sodipodi:cx="245.87665"
       sodipodi:cy="51.275974"
       sodipodi:rx="7.0927539"
       sodipodi:ry="6.9957447"
       sodipodi:start="5.749887"
       sodipodi:end="5.7487992"
       sodipodi:open="true"
       sodipodi:arc-type="arc"
       d="m 251.98447,47.719503 a 7.0927539,6.9957447 0 0 1 -2.50037,9.579784 7.0927539,6.9957447 0 0 1 -9.71331,-2.463565 7.0927539,6.9957447 0 0 1 2.49509,-9.581125 7.0927539,6.9957447 0 0 1 9.71466,2.458355"
       transform="matrix(0.99999997,-2.3932131e-4,2.4127388e-4,0.99999997,0,0)" /><g
       aria-label="CDNTR01"
       id="text541"
       style="font-size:14.1111px;line-height:1.25;font-family:'American Typewriter';-inkscape-font-specification:'American Typewriter, Normal';stroke-width:0.265"><path
         d="m 70.588377,41.535017 q 1.566332,0 2.554109,1.199443 l -0.01411,-0.155222 q 0,-0.07056 0,-0.155222 -0.01411,-0.08467 -0.01411,-0.09878 -0.02822,-0.310444 -0.02822,-0.282222 0,-0.479777 0.451556,-0.479777 0.479777,0 0.479777,0.592666 0,0.112889 -0.05644,0.677333 -0.07056,0.705555 -0.07056,0.973666 0,0.380999 0.04233,0.77611 l 0.05645,0.536222 v 0.141111 q 0,0.634999 -0.508,0.634999 -0.550333,0 -0.536222,-0.606777 l 0.01411,-0.507999 q 0.02822,-1.016 -0.634999,-1.650999 -0.663222,-0.635 -1.735665,-0.635 -1.396999,0 -2.187221,1.072444 -0.790222,1.072444 -0.790222,2.963331 0,1.933221 0.804333,3.019775 0.818444,1.072444 2.271887,1.072444 0.790222,0 1.41111,-0.381 0.635,-0.380999 0.889,-1.001888 0.169333,-0.409222 0.169333,-1.100666 0,-0.64911 0.536222,-0.64911 0.578555,0 0.578555,0.64911 0,1.509888 -1.044222,2.469443 -1.044221,0.959555 -2.69522,0.959555 -1.904998,0 -3.047997,-1.340555 -1.128888,-1.340554 -1.128888,-3.570108 0,-2.300109 1.15711,-3.711219 1.171221,-1.41111 3.07622,-1.41111 z"
         style="fill:#ffffff;stroke:#ffffff;stroke-opacity:0"
         id="path1667" /><path
         d="m 76.910137,43.722237 q 0,-1.058332 -0.719666,-1.058332 -0.127,0 -0.296333,0.02822 -0.254,0.04233 -0.381,0.04233 -0.437444,0 -0.437444,-0.451555 0,-0.493889 0.634999,-0.493889 0.07056,0 0.183445,0.01411 l 0.747888,0.09878 q 0.423333,0.05645 0.90311,0.05645 0.395111,0 0.790222,-0.04233 l 0.917221,-0.09878 q 0.268111,-0.02822 0.705555,-0.02822 1.284111,0 2.144888,0.366889 1.128888,0.479777 1.777998,1.66511 0.663222,1.185332 0.663222,2.751664 0,1.382888 -0.522111,2.497665 -0.52211,1.100666 -1.425221,1.622777 -1.086555,0.634999 -2.624664,0.634999 -0.310445,0 -0.635,-0.02822 l -0.973666,-0.08467 q -0.493888,-0.04233 -1.03011,-0.04233 -0.465667,0 -0.762,0.04233 l -0.677332,0.09878 q -0.02822,0 -0.09878,0.01411 -0.07056,0 -0.112889,0 -0.606777,0 -0.606777,-0.493888 0,-0.197556 0.127,-0.324556 0.127,-0.141111 0.310444,-0.141111 0.155222,0 0.381,0.04233 0.09878,0.02822 0.296333,0.02822 0.719666,0 0.719666,-1.058333 z m 1.185332,-0.141111 v 5.968995 q 0,0.649111 0.635,0.790222 0.211666,0.05644 1.185332,0.05644 1.693332,0 2.455332,-0.917221 0.917221,-1.100666 0.917221,-2.906887 0,-1.41111 -0.564444,-2.384776 -0.550333,-0.987777 -1.523999,-1.269999 -0.620888,-0.183444 -1.495776,-0.183444 -1.114777,0 -1.368777,0.127 -0.239889,0.127 -0.239889,0.719666 z"
         style="fill:#ffffff;stroke:#ffffff;stroke-opacity:0"
         id="path1669" /><path
         d="m 89.257332,42.424016 3.795886,7.888105 v -5.686774 q 0,-1.100665 -0.01411,-1.213554 -0.127,-0.733777 -0.705555,-0.733777 -0.112889,0 -0.338667,0.04233 -0.225777,0.02822 -0.338666,0.02822 -0.183444,0 -0.324555,-0.127 -0.127,-0.141111 -0.127,-0.324555 0,-0.508 0.634999,-0.508 0.127,0 0.183445,0.01411 l 0.634999,0.08467 q 0.423333,0.05644 0.790222,0.05644 0.366888,0 0.973666,-0.08467 0.211666,-0.02822 0.493888,-0.07056 0.02822,0 0.09878,-0.01411 0.05644,0 0.09878,0 0.606778,0 0.606778,0.493889 0,0.479777 -0.564444,0.479777 -0.09878,0 -0.155222,-0.01411 h -0.141111 q -0.423333,0 -0.550333,0.183444 -0.127,0.183445 -0.155222,0.804333 l -0.02822,0.804333 -0.02822,1.439332 v 3.767664 q 0,0.973666 -0.225777,1.368776 -0.211667,0.395111 -0.747889,0.395111 -0.691444,0 -1.171221,-0.987777 l -3.697108,-7.690549 v 6.561661 q 0,1.058333 0.719666,1.058333 0.112889,0 0.338666,-0.02822 0.225778,-0.04233 0.338667,-0.04233 0.451555,0 0.451555,0.465667 0,0.493888 -0.635,0.493888 -0.02822,0 -0.08467,0 -0.07056,-0.01411 -0.09878,-0.01411 l -0.578555,-0.08467 q -0.479777,-0.07056 -0.90311,-0.07056 -0.366889,0 -0.945444,0.07056 l -0.691444,0.08467 q -0.02822,0 -0.09878,0.01411 -0.07055,0 -0.112889,0 -0.606777,0 -0.606777,-0.493888 0,-0.437445 0.451555,-0.437445 0.07056,0 0.381,0.02822 0.155222,0.04233 0.296333,0.04233 0.719666,0 0.719666,-1.058333 v -0.987777 l 0.01411,-1.241776 v -1.213555 l -0.01411,-2.229554 q 0,-1.058332 -0.733777,-1.058332 -0.09878,0 -0.282222,0.02822 -0.268111,0.04233 -0.395111,0.04233 -0.451555,0 -0.451555,-0.465666 0,-0.493889 0.606777,-0.493889 0.08467,0 0.225778,0.01411 0.705555,0.07056 1.086555,0.07056 0.211666,0 0.634999,-0.04233 0.423333,-0.04233 0.635,-0.04233 0.437444,0 0.578555,0.296333 z"
         style="fill:#ffffff;stroke:#ffffff;stroke-opacity:0"
         id="path1671" /><path
         d="m 100.89899,49.394899 q 0,1.058333 0.71967,1.058333 0.11288,0 0.33866,-0.02822 0.22578,-0.04233 0.33867,-0.04233 0.18344,0 0.31044,0.141111 0.14111,0.127 0.14111,0.310445 0,0.493888 -0.635,0.493888 -0.0282,0 -0.0847,0 -0.0706,-0.01411 -0.0988,-0.01411 l -0.69144,-0.09878 q -0.39512,-0.05644 -0.889,-0.05644 -0.536226,0 -0.945448,0.05644 l -0.705555,0.09878 q -0.04233,0 -0.09878,0.01411 -0.07056,0 -0.09878,0 -0.620888,0 -0.620888,-0.493888 0,-0.451556 0.451555,-0.451556 0.112889,0 0.338666,0.04233 0.225778,0.02822 0.338667,0.02822 0.705555,0 0.705555,-1.058333 v -0.987777 l 0.01411,-1.241777 v -1.199443 l -0.01411,-2.300109 q 0,-1.001888 -1.030111,-1.001888 h -0.437444 q -1.015999,0 -1.015999,0.987777 0,0.352777 0.01411,0.479777 l 0.05644,0.522111 q 0.01411,0.127 0.01411,0.352777 0,0.888999 -0.550333,0.888999 -0.522111,0 -0.522111,-0.64911 0,-0.183444 0.02822,-0.635 0.04233,-0.677332 0.04233,-0.860777 0,-0.352777 -0.02822,-0.733777 -0.05644,-0.747888 -0.05644,-0.634999 0,-0.592667 0.536222,-0.592667 0.197555,0 0.917221,0.04233 0.07056,0 1.15711,0.02822 l 1.608662,0.02822 q 0.28223,0 1.50989,-0.02822 0.26811,0 0.91722,-0.04233 0.57856,-0.04233 0.90311,-0.04233 0.70556,0 0.70556,0.578555 v 0.02822 q 0,0.141111 -0.0423,0.52211 -0.0282,0.381 -0.0706,0.818444 v 0.155222 q 0,0.211667 0.0423,0.663222 0.0564,0.592666 0.0564,0.733777 0,0.578555 -0.55034,0.578555 -0.53622,0 -0.53622,-0.705555 0,-0.254 0.0423,-0.747888 0.0423,-0.508 0.0423,-0.762 0,-0.973665 -1.11478,-0.973665 h -0.39511 q -0.52211,0 -0.74789,0.225777 -0.22577,0.211667 -0.254,0.719666 l -0.0423,0.987777 z"
         style="fill:#ffffff;stroke:#ffffff;stroke-opacity:0"
         id="path1673" /><path
         d="m 112.42774,46.06468 q -0.40922,0.197555 -1.04422,0.338666 0.83256,0.155222 1.143,0.620888 0.32456,0.465667 0.32456,1.53811 v 0.649111 q -0.0141,0.05644 -0.0141,0.169333 0,1.015999 0.64911,1.015999 0.66322,0 0.66322,-1.213554 0,-0.423333 0,-0.423333 l -0.0141,-0.352778 q 0,0 0,-0.197555 0,-0.409222 0.0564,-0.564444 0.11289,-0.239889 0.43744,-0.239889 0.508,0 0.508,0.592666 0,0.01411 -0.0141,0.310445 l -0.0141,0.296333 q -0.0141,0.296333 -0.0141,0.380999 v 0.352778 q 0.0141,0.08467 0.0141,0.254 0,0.818444 -0.46566,1.28411 -0.45156,0.451555 -1.27,0.451555 -1.66511,0 -1.66511,-1.679221 v -0.423333 l 0.0141,-0.479777 v -0.310444 q 0,-0.945444 -0.36689,-1.241777 -0.35278,-0.310445 -1.48167,-0.310445 h -1.31233 q -0.45155,0 -0.45155,0.550333 v 1.086555 q 0,1.044222 0.0282,1.185333 0.127,0.705555 0.70555,0.705555 0.19756,0 0.29634,-0.02822 0.23989,-0.04233 0.36689,-0.04233 0.45155,0 0.45155,0.479777 0,0.508 -0.60678,0.508 0,0 -0.21166,-0.02822 l -0.762,-0.09878 q -0.43745,-0.05644 -0.77611,-0.05644 -0.42334,0 -0.98778,0.07056 l -0.67733,0.08467 q -0.22578,0.02822 -0.21167,0.02822 -0.60678,0 -0.60678,-0.508 0,-0.451555 0.43745,-0.451555 0.0705,0 0.381,0.02822 0.15522,0.04233 0.29633,0.04233 0.71967,0 0.71967,-1.058333 v -5.658551 q 0,-1.058332 -0.71967,-1.058332 -0.11289,0 -0.33867,0.04233 -0.22577,0.02822 -0.33866,0.02822 -0.18345,0 -0.31045,-0.127 -0.127,-0.141111 -0.127,-0.324555 0,-0.493889 0.62089,-0.493889 0.0564,0 0.19756,0.01411 l 0.71966,0.07056 q 0.28223,0.02822 0.70556,0.02822 0.43744,0 0.97366,-0.02822 l 1.07245,-0.05644 q 0.53622,-0.02822 0.98777,-0.02822 3.10445,0 3.10445,2.370665 0,1.396999 -1.07245,1.904999 z m -3.90877,-0.127 h 1.32644 q 1.18533,0 1.778,-0.338667 0.71967,-0.409222 0.71967,-1.368776 0,-1.608666 -2.20134,-1.608666 -1.17122,0 -1.59455,0.183445 -0.40922,0.169333 -0.42333,0.691443 l -0.0141,0.451556 v 1.622776 q 0,0.239889 0.0847,0.310444 0.0847,0.05645 0.32456,0.05645 z"
         style="fill:#ffffff;stroke:#ffffff;stroke-opacity:0"
         id="path1675" /><path
         d="m 119.55383,51.568009 q -1.79211,0 -2.82222,-1.312333 -1.016,-1.326443 -1.016,-3.640663 0,-2.356554 1.05834,-3.71122 1.07244,-1.368776 2.92099,-1.368776 1.76389,0 2.77989,1.312332 1.03011,1.298221 1.03011,3.527775 0,2.412998 -1.05833,3.809997 -1.05833,1.382888 -2.89278,1.382888 z m 0.11289,-8.988771 q -2.59644,0 -2.69522,3.880552 0,0 0,0.211667 0,1.848554 0.67733,2.864553 0.67734,1.001888 1.91911,1.001888 1.27,0 1.98967,-1.100665 0.71967,-1.100666 0.71967,-3.033887 0,-1.848554 -0.67734,-2.836331 -0.67733,-0.987777 -1.93322,-0.987777 z"
         style="fill:#ffffff;stroke:#ffffff;stroke-opacity:0"
         id="path1677" /><path
         d="m 126.80691,47.9979 -0.0423,-4.092219 q -0.0141,-0.719666 -0.15523,-0.959554 -0.127,-0.239889 -0.52211,-0.239889 -0.14111,0 -0.40922,0.04233 -0.26811,0.02822 -0.40922,0.02822 -0.55033,0 -0.55033,-0.493888 0,-0.493889 0.52211,-0.493889 0.16933,0 0.52211,0.04233 0.36689,0.02822 0.56444,0.02822 0.45156,0 0.74789,-0.02822 0.43745,-0.04233 0.53622,-0.04233 0.31045,0 0.381,0.183445 0.0564,0.127 0.0564,0.437444 0,0.04233 -0.0141,0.338666 -0.0706,1.509888 -0.0706,2.737554 v 1.594554 q 0,0.437444 0.0141,1.171221 0.0282,0.889 0.0282,1.171222 0.0141,0.973665 0.64911,0.973665 0.15523,0 0.46567,-0.02822 0.31044,-0.04233 0.46567,-0.04233 0.67733,0 0.67733,0.493888 0,0.493889 -0.62089,0.493889 -0.23989,0 -0.45155,-0.02822 -1.18534,-0.155222 -1.80622,-0.155222 -0.62089,0 -1.524,0.127 -0.508,0.07055 -0.71967,0.07055 -0.60678,0 -0.60678,-0.508 0,-0.493888 0.69145,-0.493888 0.21166,0 0.43744,0.04233 0.33867,0.02822 0.42333,0.02822 0.49389,0 0.60678,-0.380999 0.11289,-0.395111 0.11289,-2.017888 z"
         style="fill:#ffffff;stroke:#ffffff;stroke-opacity:0"
         id="path1679" /></g><g
       aria-label="000001"
       id="text541-4"
       style="font-size:14.1111px;line-height:1.25;font-family:'American Typewriter';-inkscape-font-specification:'American Typewriter, Normal';stroke-width:0.265"><path
         d="m 179.24981,51.568009 q -1.79211,0 -2.82222,-1.312333 -1.016,-1.326443 -1.016,-3.640663 0,-2.356554 1.05833,-3.71122 1.07245,-1.368776 2.921,-1.368776 1.76389,0 2.77989,1.312332 1.03011,1.298221 1.03011,3.527775 0,2.412998 -1.05834,3.809997 -1.05833,1.382888 -2.89277,1.382888 z m 0.11289,-8.988771 q -2.59644,0 -2.69522,3.880552 0,0 0,0.211667 0,1.848554 0.67733,2.864553 0.67733,1.001888 1.91911,1.001888 1.27,0 1.98967,-1.100665 0.71966,-1.100666 0.71966,-3.033887 0,-1.848554 -0.67733,-2.836331 -0.67733,-0.987777 -1.93322,-0.987777 z"
         style="fill:#ffffff;stroke:#ffffff;stroke-opacity:0"
         id="path1682" /><path
         d="m 188.23857,51.568009 q -1.79211,0 -2.82222,-1.312333 -1.016,-1.326443 -1.016,-3.640663 0,-2.356554 1.05833,-3.71122 1.07244,-1.368776 2.921,-1.368776 1.76389,0 2.77989,1.312332 1.03011,1.298221 1.03011,3.527775 0,2.412998 -1.05834,3.809997 -1.05833,1.382888 -2.89277,1.382888 z m 0.11289,-8.988771 q -2.59645,0 -2.69522,3.880552 0,0 0,0.211667 0,1.848554 0.67733,2.864553 0.67733,1.001888 1.91911,1.001888 1.27,0 1.98966,-1.100665 0.71967,-1.100666 0.71967,-3.033887 0,-1.848554 -0.67733,-2.836331 -0.67734,-0.987777 -1.93322,-0.987777 z"
         style="fill:#ffffff;stroke:#ffffff;stroke-opacity:0"
         id="path1684" /><path
         d="m 197.22733,51.568009 q -1.79211,0 -2.82222,-1.312333 -1.016,-1.326443 -1.016,-3.640663 0,-2.356554 1.05833,-3.71122 1.07244,-1.368776 2.921,-1.368776 1.76388,0 2.77988,1.312332 1.03011,1.298221 1.03011,3.527775 0,2.412998 -1.05833,3.809997 -1.05833,1.382888 -2.89277,1.382888 z m 0.11288,-8.988771 q -2.59644,0 -2.69522,3.880552 0,0 0,0.211667 0,1.848554 0.67734,2.864553 0.67733,1.001888 1.91911,1.001888 1.27,0 1.98966,-1.100665 0.71967,-1.100666 0.71967,-3.033887 0,-1.848554 -0.67733,-2.836331 -0.67734,-0.987777 -1.93323,-0.987777 z"
         style="fill:#ffffff;stroke:#ffffff;stroke-opacity:0"
         id="path1686" /><path
         d="m 206.21608,51.568009 q -1.79211,0 -2.82222,-1.312333 -1.016,-1.326443 -1.016,-3.640663 0,-2.356554 1.05834,-3.71122 1.07244,-1.368776 2.92099,-1.368776 1.76389,0 2.77989,1.312332 1.03011,1.298221 1.03011,3.527775 0,2.412998 -1.05833,3.809997 -1.05833,1.382888 -2.89278,1.382888 z m 0.11289,-8.988771 q -2.59644,0 -2.69522,3.880552 0,0 0,0.211667 0,1.848554 0.67734,2.864553 0.67733,1.001888 1.9191,1.001888 1.27,0 1.98967,-1.100665 0.71967,-1.100666 0.71967,-3.033887 0,-1.848554 -0.67734,-2.836331 -0.67733,-0.987777 -1.93322,-0.987777 z"
         style="fill:#ffffff;stroke:#ffffff;stroke-opacity:0"
         id="path1688" /><path
         d="m 215.20484,51.568009 q -1.79211,0 -2.82222,-1.312333 -1.016,-1.326443 -1.016,-3.640663 0,-2.356554 1.05834,-3.71122 1.07244,-1.368776 2.92099,-1.368776 1.76389,0 2.77989,1.312332 1.03011,1.298221 1.03011,3.527775 0,2.412998 -1.05833,3.809997 -1.05834,1.382888 -2.89278,1.382888 z m 0.11289,-8.988771 q -2.59644,0 -2.69522,3.880552 0,0 0,0.211667 0,1.848554 0.67733,2.864553 0.67734,1.001888 1.91911,1.001888 1.27,0 1.98967,-1.100665 0.71966,-1.100666 0.71966,-3.033887 0,-1.848554 -0.67733,-2.836331 -0.67733,-0.987777 -1.93322,-0.987777 z"
         style="fill:#ffffff;stroke:#ffffff;stroke-opacity:0"
         id="path1690" /><path
         d="m 222.45792,47.9979 -0.0423,-4.092219 q -0.0141,-0.719666 -0.15523,-0.959554 -0.127,-0.239889 -0.52211,-0.239889 -0.14111,0 -0.40922,0.04233 -0.26811,0.02822 -0.40922,0.02822 -0.55033,0 -0.55033,-0.493888 0,-0.493889 0.52211,-0.493889 0.16933,0 0.52211,0.04233 0.36689,0.02822 0.56444,0.02822 0.45156,0 0.74789,-0.02822 0.43744,-0.04233 0.53622,-0.04233 0.31045,0 0.381,0.183445 0.0565,0.127 0.0565,0.437444 0,0.04233 -0.0141,0.338666 -0.0705,1.509888 -0.0705,2.737554 v 1.594554 q 0,0.437444 0.0141,1.171221 0.0282,0.889 0.0282,1.171222 0.0141,0.973665 0.64911,0.973665 0.15523,0 0.46567,-0.02822 0.31044,-0.04233 0.46567,-0.04233 0.67733,0 0.67733,0.493888 0,0.493889 -0.62089,0.493889 -0.23989,0 -0.45156,-0.02822 -1.18533,-0.155222 -1.80622,-0.155222 -0.62088,0 -1.52399,0.127 -0.508,0.07055 -0.71967,0.07055 -0.60678,0 -0.60678,-0.508 0,-0.493888 0.69145,-0.493888 0.21166,0 0.43744,0.04233 0.33867,0.02822 0.42333,0.02822 0.49389,0 0.60678,-0.380999 0.11289,-0.395111 0.11289,-2.017888 z"
         style="fill:#ffffff;stroke:#ffffff;stroke-opacity:0"
         id="path1692" /></g><g
       aria-label="No."
       id="text541-4-1"
       style="font-weight:bold;font-size:16.9333px;line-height:1.25;-inkscape-font-specification:'sans-serif, Bold';stroke-width:0.265"><path
         d="m 149.42768,52.562504 h -3.05924 l -5.22551,-8.450114 v 8.450114 h -2.91041 V 40.251135 h 3.79511 l 4.48964,7.052785 v -7.052785 h 2.91041 z"
         style="stroke:#ffffff;stroke-opacity:0"
         id="path1695" /><path
         d="m 161.89615,47.924036 q 0,2.290295 -1.33945,3.613209 -1.33119,1.314646 -3.74551,1.314646 -2.41431,0 -3.75376,-1.314646 -1.33119,-1.322914 -1.33119,-3.613209 0,-2.306831 1.33945,-3.621477 1.34772,-1.314646 3.7455,-1.314646 2.43086,0 3.75377,1.322914 1.33119,1.322914 1.33119,3.613209 z m -3.66282,2.257222 q 0.28938,-0.355533 0.42994,-0.851625 0.14883,-0.504361 0.14883,-1.38906 0,-0.818553 -0.14883,-1.372524 -0.14882,-0.55397 -0.41341,-0.884698 -0.26458,-0.338997 -0.63665,-0.479557 -0.37207,-0.140559 -0.80202,-0.140559 -0.42994,0 -0.76894,0.115755 -0.33073,0.115755 -0.63665,0.46302 -0.27285,0.32246 -0.43822,0.884698 -0.15709,0.562239 -0.15709,1.413865 0,0.760675 0.14056,1.322914 0.14056,0.55397 0.41341,0.892967 0.26458,0.32246 0.62838,0.471288 0.37207,0.148828 0.84336,0.148828 0.40514,0 0.76894,-0.132292 0.37207,-0.140559 0.62839,-0.46302 z"
         style="stroke:#ffffff;stroke-opacity:0"
         id="path1697" /><path
         d="m 167.22914,52.562504 h -3.09231 v -3.249408 h 3.09231 z"
         style="stroke:#ffffff;stroke-opacity:0"
         id="path1699" /></g></g><metadata
     id="metadata61"><rdf:RDF><cc:Work
         rdf:about=""><dc:title>ConnorTone ID tag</dc:title><dc:date>9/8/2022</dc:date><dc:creator><cc:Agent><dc:title>Neal Connor</dc:title></cc:Agent></dc:creator><dc:rights><cc:Agent><dc:title>Copyright Neal Connor 2022</dc:title></cc:Agent></dc:rights></cc:Work></rdf:RDF></metadata></svg>
