<?xml version="1.0" encoding="UTF-8" standalone="no"?>
<!-- Created with Inkscape (http://www.inkscape.org/) -->

<svg
   version="1.1"
   id="svg1665"
   width="1457.443"
   height="678.66669"
   viewBox="0 0 1457.4429 678.66669"
   sodipodi:docname="tone_for_enamel_flat v2.svg"
   inkscape:version="1.2.1 (9c6d41e, 2022-07-14)"
   xmlns:inkscape="http://www.inkscape.org/namespaces/inkscape"
   xmlns:sodipodi="http://sodipodi.sourceforge.net/DTD/sodipodi-0.dtd"
   xmlns="http://www.w3.org/2000/svg"
   xmlns:svg="http://www.w3.org/2000/svg">
  <defs
     id="defs1669" />
  <sodipodi:namedview
     id="namedview1667"
     pagecolor="#ffffff"
     bordercolor="#111111"
     borderopacity="1"
     inkscape:showpageshadow="0"
     inkscape:pageopacity="0"
     inkscape:pagecheckerboard="1"
     inkscape:deskcolor="#d1d1d1"
     showgrid="false"
     inkscape:zoom="0.34705882"
     inkscape:cx="553.22034"
     inkscape:cy="347.20339"
     inkscape:window-width="2417"
     inkscape:window-height="1217"
     inkscape:window-x="0"
     inkscape:window-y="25"
     inkscape:window-maximized="0"
     inkscape:current-layer="g1671" />
  <g
     inkscape:groupmode="layer"
     inkscape:label="Image"
     id="g1671"
     transform="translate(-0.07079631,-0.66666667)">
    <path
       style="fill:#000000;stroke-width:1.33333"
       d="m 165.72714,678.22529 c -0.37659,-0.60941 -2.0825,-0.75721 -3.79088,-0.32844 -1.70839,0.42879 -3.46247,0.20308 -3.89795,-0.50154 -0.43549,-0.70463 -2.42227,-1.3055 -4.41505,-1.33524 -5.82402,-0.0869 -11.45074,-0.8808 -13.89274,-1.96004 -1.24822,-0.55164 -2.9245,-0.59818 -3.72508,-0.10334 -0.80057,0.49478 -2.32166,0.18083 -3.3802,-0.69769 -1.05853,-0.87851 -2.9083,-1.2198 -4.11059,-0.75844 -1.20229,0.46136 -3.00229,0.16136 -4,-0.66667 -0.99771,-0.82802 -2.72166,-1.15721 -3.831,-0.73152 -1.10934,0.42564 -2.01698,0.15736 -2.01698,-0.59624 0,-0.7536 -0.55854,-1.02498 -1.2412,-0.60308 -0.68266,0.42192 -1.62412,0.14754 -2.09213,-0.60972 -0.46801,-0.75725 -1.40947,-1.03164 -2.09213,-0.60972 C 112.55854,669.14552 112,668.81989 112,668 c 0,-0.81989 -0.6,-1.11989 -1.33333,-0.66667 -0.73333,0.45323 -1.33333,0.15323 -1.33333,-0.66666 0,-0.8199 -0.6,-1.1199 -1.33334,-0.66667 -0.73333,0.45323 -1.33333,0.15323 -1.33333,-0.66667 0,-0.81989 -0.54875,-1.15156 -1.21945,-0.73705 -0.6707,0.41452 -1.42959,0.12333 -1.68642,-0.64721 -0.25683,-0.7705 -1.80807,-1.50191 -3.44721,-1.62539 -1.639141,-0.12347 -2.980254,-0.73221 -2.980254,-1.35277 0,-0.62056 -0.6,-0.75747 -1.333334,-0.30424 -0.733333,0.45322 -1.333333,0.15322 -1.333333,-0.66667 0,-0.81989 -0.6,-1.11989 -1.333334,-0.66667 -0.733333,0.45323 -1.333333,0.25862 -1.333333,-0.43246 0,-1.1372 -2.727489,-2.32902 -5.88014,-2.5694 -0.667412,-0.0509 -1.747225,-1.0463 -2.399588,-2.212 C 83.067913,652.95376 82.001007,652 81.349373,652 c -0.651634,0 -3.124695,-1.77183 -5.495691,-3.9374 -2.370995,-2.16557 -4.745155,-3.66901 -5.275911,-3.34099 -0.530756,0.32802 -1.309049,-0.30014 -1.729543,-1.39593 -0.420493,-1.09579 -1.633365,-1.99235 -2.695269,-1.99235 -1.061904,0 -2.130735,-0.53341 -2.37518,-1.18536 -0.244444,-0.65194 -2.965803,-3.2806 -6.047462,-5.84142 -3.08166,-2.56084 -5.319388,-4.9397 -4.972729,-5.28636 0.346659,-0.34666 -2.023518,-3.07648 -5.267059,-6.06627 -3.243541,-2.9898 -5.639957,-5.69339 -5.325367,-6.00797 0.31459,-0.31459 -1.79216,-2.70784 -4.681665,-5.31834 -2.889507,-2.61049 -4.905363,-5.09464 -4.479683,-5.52032 0.42568,-0.42568 0.03856,-0.77396 -0.86028,-0.77396 -0.898835,0 -1.276951,-0.57812 -0.840256,-1.2847 0.436693,-0.70658 -0.377897,-2.45658 -1.8102,-3.88888 -1.432304,-1.43231 -2.254188,-2.95419 -1.826411,-3.38198 C 28.094445,596.35 27.709035,596 26.810201,596 c -0.898835,0 -1.260806,-0.60424 -0.80438,-1.34275 0.456426,-0.73852 -0.10472,-1.70138 -1.246986,-2.13972 -1.142269,-0.43832 -1.744888,-1.33409 -1.339153,-1.99057 0.405733,-0.65649 0.06688,-1.19363 -0.753015,-1.19363 -0.819892,0 -1.133417,-0.57812 -0.696722,-1.2847 0.436693,-0.70658 -0.377898,-2.45658 -1.810201,-3.88888 -1.432304,-1.43231 -2.254188,-2.95419 -1.82641,-3.38198 C 18.761111,580.35 18.411111,580 17.555556,580 16.7,580 16.071052,579.55 16.157895,579 16.660731,575.81537 15.819699,573.28739 14.523822,574.08828 13.518207,574.70979 13.351228,574.04411 14,572 c 0.691739,-2.17948 0.5093,-2.72679 -0.666666,-2 -1.175967,0.72679 -1.358405,0.17948 -0.666667,-2 0.691739,-2.17948 0.5093,-2.72679 -0.666667,-2 -1.175967,0.72679 -1.358405,0.17948 -0.666666,-2 0.691738,-2.17948 0.5093,-2.72679 -0.666667,-2 -1.1625381,0.71849 -1.3654477,0.20167 -0.7196618,-1.83303 0.5219728,-1.64458 0.3197278,-2.83364 -0.481975,-2.83364 -0.7597355,0 -1.0359748,-0.9 -0.6138652,-2 0.4221096,-1.1 0.1221093,-2 -0.6666667,-2 -0.7887763,0 -1.0887763,-0.9 -0.6666667,-2 0.4221096,-1.1 0.1221094,-2 -0.6666666,-2 -0.7887763,0 -1.0887763,-0.9 -0.6666667,-2 0.4221096,-1.1 0.1864818,-2 -0.5236172,-2 -0.7100991,0 -0.9872993,-1.58917 -0.6160003,-3.53149 0.4712397,-2.46513 0.2072988,-3.2424 -0.8740951,-2.57405 -1.1415502,0.7055 -1.3394419,-1.08424 -0.7520738,-6.80184 0.6069653,-5.90836 0.4393075,-7.2822 -0.7028398,-5.75928 -1.1376618,1.51693 -1.2819627,0.1028 -0.5974366,-5.85484 0.716617,-6.23692 0.5485212,-7.63606 -0.8160919,-6.79268 -1.32291199,0.81761 -1.52351658,0.0867 -0.87128082,-3.17447 C 0.89709134,508.51455 1.3165493,428.17759 1.3631916,332.31811 1.421985,211.48504 1.8723939,158.63725 2.8316963,160.01408 3.8347257,161.45365 3.9971542,160.34933 3.4221075,156 c -0.5953244,-4.50271 -0.4321116,-5.50091 0.6540301,-4 1.0795197,1.49175 1.2397672,0.30584 0.6305862,-4.66667 -0.6236244,-5.0904 -0.4630098,-6.19378 0.6793034,-4.66666 1.1484275,1.53529 1.311713,0.60588 0.7027471,-4 -0.5989698,-4.53028 -0.4356668,-5.5101 0.6666667,-4 1.1023334,1.51009 1.2656362,0.53028 0.6666666,-4 -0.5997458,-4.53615 -0.4364302,-5.51205 0.6693922,-4 1.1226141,1.535 1.3003733,0.83057 0.7645699,-3.02988 -0.3839614,-2.76643 -0.196523,-4.71988 0.4165297,-4.34099 1.5701876,0.97043 2.8132106,-2.85408 1.7923026,-5.51453 -0.533919,-1.39137 -0.321815,-1.89142 0.5688,-1.34099 1.6955,1.04788 3.416276,-2.74138 2.164613,-4.76661 -0.485584,-0.7857 -0.252328,-1.03296 0.522628,-0.55401 1.584423,0.97923 3.419484,-2.71561 2.27136,-4.57332 -0.412324,-0.66715 -0.05008,-1.21301 0.804993,-1.21301 0.857267,0 1.198475,-0.92824 0.760628,-2.069247 -0.518786,-1.351939 -0.258589,-1.73832 0.7506,-1.114607 1.040952,0.643344 1.258346,0.208556 0.666667,-1.333333 -0.482888,-1.258387 -0.347723,-1.96026 0.300369,-1.559718 1.421608,0.878602 3.108618,-2.997326 2.050077,-4.710081 -0.412325,-0.667156 -0.208754,-1.213011 0.452381,-1.213011 0.661133,0 2.346544,-2.193449 3.745355,-4.874332 1.398812,-2.680882 4.165125,-6.683757 6.147361,-8.895277 1.982237,-2.21152 3.335683,-4.455199 3.007659,-4.985955 -0.328026,-0.530756 0.300145,-1.309049 1.395933,-1.729542 1.095788,-0.420494 1.992342,-1.619172 1.992342,-2.663728 0,-1.044558 0.985877,-2.277512 2.190837,-2.739899 1.204961,-0.462387 1.874317,-1.157223 1.48746,-1.54408 -0.860887,-0.860888 5.986371,-8.180661 7.159444,-7.653504 0.460757,0.207057 3.57485,-2.549724 6.920206,-6.12618 3.345356,-3.576456 6.334229,-6.250883 6.641941,-5.943171 0.307712,0.307712 2.695335,-1.804664 5.30583,-4.694169 2.610494,-2.889507 5.094637,-4.905363 5.520318,-4.479683 0.42568,0.42568 0.773964,0.03856 0.773964,-0.86028 0,-0.898834 0.604238,-1.260805 1.342751,-0.80438 0.738512,0.456427 1.701384,-0.10472 2.139713,-1.246985 0.43833,-1.142269 1.334091,-1.744888 1.990583,-1.339153 0.656491,0.405733 1.19362,0.06688 1.19362,-0.753015 0,-0.819892 0.6,-1.119892 1.333334,-0.666667 0.733333,0.453226 1.333333,0.153226 1.333333,-0.666666 0,-0.819892 0.604237,-1.117272 1.342751,-0.660847 0.738512,0.456427 1.701384,-0.10472 2.139713,-1.246985 0.438329,-1.14227 1.334091,-1.744888 1.990583,-1.339154 0.65649,0.405734 1.19362,0.06688 1.19362,-0.753014 0,-0.819892 0.578114,-1.133418 1.2847,-0.696723 0.706586,0.436693 2.456586,-0.377897 3.888889,-1.8102 1.432304,-1.432304 2.954188,-2.254188 3.381967,-1.826411 C 99.650002,18.761111 100,18.375701 100,17.476867 c 0,-0.898835 0.55163,-1.29332 1.22584,-0.876635 0.67421,0.416687 2.12963,-0.14618 3.23427,-1.250813 1.16874,-1.168742 2.97745,-1.636575 4.32622,-1.119004 1.66784,0.640012 2.02269,0.411936 1.26543,-0.813342 -0.78851,-1.275832 -0.30003,-1.463981 1.94824,-0.750406 2.17948,0.691738 2.72679,0.5093 2,-0.666667 -0.72679,-1.175967 -0.17947,-1.358405 2,-0.666667 2.17948,0.691739 2.72679,0.509301 2,-0.666666 -0.71849,-1.1625383 -0.20166,-1.3654479 1.83303,-0.7196621 1.64459,0.5219731 2.83364,0.3197271 2.83364,-0.4819749 0,-0.7597355 0.9,-1.0359748 2,-0.6138652 1.1,0.4221096 2,0.1221093 2,-0.6666667 0,-0.7887762 0.9,-1.0887762 2,-0.6666666 1.1,0.4221096 2,0.1221093 2,-0.6666667 0,-0.7887763 0.9,-1.0887763 2,-0.6666667 1.1,0.4221096 2,0.1864819 2,-0.5236172 0,-0.710099 1.65,-1.0273189 3.66667,-0.7049328 2.92461,0.4675314 3.2619,0.2872199 1.66666,-0.8909652 -1.50084,-1.1084588 0.16304,-1.2757964 6.66667,-0.6704718 6.55301,0.609921 8.17889,0.4426241 6.66667,-0.6859698 -1.51522,-1.1308212 -0.0608,-1.2945054 6,-0.6752892 4.4,0.4495318 7.30729,0.3259494 6.46064,-0.2746276 C 164.94734,1.1580477 417.94005,0.66666667 728,0.66666667 c 310.0599,0 563.0527,0.49846423 562.206,1.10769843 -0.8481,0.6102782 1.155,0.751466 4.4607,0.314409 4.5303,-0.5989697 5.5101,-0.4356668 4,0.6666667 -1.5101,1.1023335 -0.5303,1.2656363 4,0.6666667 4.5027,-0.5953244 5.5009,-0.4321116 4,0.65403 -1.4918,1.0795197 -0.3058,1.2397672 4.6667,0.6305862 5.0904,-0.6236244 6.1938,-0.4630098 4.6666,0.6793034 -1.5353,1.1484274 -0.6058,1.3117129 4,0.702747 4.5303,-0.5989697 5.5101,-0.4356668 4,0.6666667 -1.5101,1.1023335 -0.5302,1.2656363 4,0.6666667 4.5362,-0.5997459 5.512,-0.4364303 4,0.6693921 -1.536,1.1233564 -0.84,1.3018524 3,0.7694183 2.8955,-0.4014704 5,-0.1342291 5,0.6349322 0,0.7305069 0.5586,0.9829979 1.2412,0.5610899 0.6827,-0.4219077 1.6242,-0.1475308 2.0922,0.609727 0.468,0.757257 1.4094,1.031634 2.0921,0.609726 0.6827,-0.421908 1.2412,-0.09628 1.2412,0.723607 0,0.819892 0.6,1.119892 1.3333,0.666667 0.7334,-0.453225 1.3334,-0.153225 1.3334,0.666666 0,0.819892 0.6,1.119892 1.3333,0.666667 0.7333,-0.453225 1.3333,-0.153225 1.3333,0.666667 0,0.819892 0.5488,1.151564 1.2195,0.737048 0.6707,-0.414515 1.4296,-0.123267 1.6864,0.647221 0.2568,0.770487 1.8081,1.501908 3.4472,1.62538 1.6392,0.123467 2.9803,0.732223 2.9803,1.352779 0,0.620556 0.6,0.757464 1.3333,0.304238 C 1363.4,18.880108 1364,19.180108 1364,20 c 0,0.819892 0.6,1.119892 1.3334,0.666667 0.7333,-0.453226 1.3333,-0.258614 1.3333,0.432469 0,1.2005 3.4511,2.611719 5.7604,2.355536 0.6016,-0.06673 1.6815,0.928661 2.3996,2.211995 C 1375.545,26.95 1376.6656,28 1377.3174,28 c 0.6516,0 3.1246,1.771831 5.4956,3.9374 2.371,2.165571 4.7452,3.669016 5.276,3.340992 0.5306,-0.328025 1.309,0.300145 1.7294,1.395933 0.4206,1.095788 1.6835,1.992342 2.8064,1.992342 1.1231,0 2.0419,0.596236 2.0419,1.32497 0,0.728734 2.49,3.128734 5.5333,5.333334 3.0435,2.204598 5.0607,4.008362 4.483,4.008362 -0.5778,0 3.6921,4.95 9.4885,11 15.8408,16.533828 37.0733,55.845457 36.7273,67.999997 -0.036,1.28334 0.4775,2.33334 1.1423,2.33334 0.6647,0 0.8632,0.9 0.4411,2 -0.4222,1.1 -0.068,2 0.7872,2 0.855,0 1.1785,0.60864 0.7188,1.35252 -0.4598,0.74388 -0.099,4.79388 0.8018,9 0.9007,4.20612 1.775,10.34748 1.9426,13.64748 0.9325,18.35456 1.0845,354.15836 0.1597,352.87294 -0.6103,-0.84826 -0.7515,1.15466 -0.3144,4.46039 0.5989,4.53028 0.4357,5.51009 -0.6667,4 -1.1022,-1.51009 -1.2656,-0.53028 -0.6666,4 0.5953,4.50271 0.4321,5.50091 -0.654,4 -1.0795,-1.49175 -1.2398,-0.30584 -0.6306,4.66667 0.6236,5.0904 0.463,6.19378 -0.6793,4.66666 -1.1484,-1.53529 -1.3117,-0.60588 -0.7028,4 0.5989,4.53028 0.4357,5.5101 -0.6667,4 -1.1057,-1.51478 -1.2682,-0.62524 -0.6698,3.66667 0.5249,3.76455 0.2888,5.66667 -0.7035,5.66667 -0.9275,0 -1.1765,1.26362 -0.6571,3.33333 0.505,2.01161 0.2667,3.33333 -0.6008,3.33333 -0.7905,0 -1.0921,0.55855 -0.6702,1.2412 0.4218,0.68267 0.1474,1.62412 -0.6098,2.09214 -0.7572,0.46801 -1.0316,1.40946 -0.6097,2.09213 0.4219,0.68265 0.096,1.2412 -0.7236,1.2412 -0.8199,0 -1.1199,0.6 -0.6667,1.33333 0.4532,0.73334 0.1532,1.33334 -0.6666,1.33334 -0.8199,0 -1.1199,0.6 -0.6667,1.33333 0.4532,0.73333 0.1532,1.33333 -0.6667,1.33333 -0.8198,0 -1.1516,0.54876 -0.737,1.21946 0.4145,0.67069 0.1226,1.42958 -0.6472,1.68641 -0.7706,0.25683 -1.5019,1.80808 -1.6254,3.44721 -0.124,1.63914 -0.7322,2.98026 -1.3528,2.98026 -0.6205,0 -0.7574,0.6 -0.3042,1.33333 0.4532,0.73333 0.1532,1.33333 -0.6667,1.33333 -0.8199,0 -1.1199,0.6 -0.6667,1.33334 0.4532,0.73333 0.331,1.33333 -0.2718,1.33333 -1.0723,0 -1.6548,0.88663 -5.7282,8.71863 -1.1,2.11501 -3.9514,5.96854 -6.3365,8.56342 -2.3851,2.59487 -4.7224,5.91564 -5.194,7.3795 -0.4716,1.46385 -1.8203,3.39477 -2.9968,4.29093 -1.1767,0.89616 -1.7276,1.64845 -1.2244,1.67179 0.5032,0.0233 -0.6968,1.72152 -2.6667,3.77378 -1.9698,2.05227 -3.9585,3.56199 -4.4193,3.35494 -0.4608,-0.20706 -3.5748,2.54972 -6.9203,6.12617 -3.3453,3.57645 -6.3341,6.25088 -6.6418,5.94317 -0.3078,-0.3077 -2.6954,1.80467 -5.3059,4.69418 -2.6105,2.8895 -5.0947,4.90536 -5.5203,4.47968 -0.4257,-0.42568 -0.774,-0.0385 -0.774,0.86028 0,0.89884 -0.6042,1.2608 -1.3428,0.80437 -0.7384,-0.45641 -1.7013,0.10467 -2.1396,1.24699 -0.4384,1.14228 -1.3341,1.74489 -1.9906,1.33916 -0.6566,-0.40574 -1.1936,-0.0669 -1.1936,0.75301 0,0.81989 -0.6,1.11989 -1.3334,0.66667 -0.7333,-0.45323 -1.3333,-0.15323 -1.3333,0.66666 0,0.8199 -0.6043,1.11727 -1.3428,0.66084 -0.7384,-0.45641 -1.7013,0.10467 -2.1396,1.24699 -0.4384,1.14228 -1.3341,1.74489 -1.9907,1.33916 -0.6565,-0.40573 -1.1936,-0.0669 -1.1936,0.75301 0,0.8199 -0.5781,1.13342 -1.2846,0.69672 -0.7067,-0.43669 -2.4567,0.3779 -3.889,1.8102 -1.4322,1.43231 -2.9541,2.25419 -3.382,1.82642 -0.4277,-0.42778 -0.7777,-0.0424 -0.7777,0.85646 0,0.89884 -0.5516,1.29332 -1.2259,0.87664 -0.6741,-0.41669 -2.1296,0.14618 -3.2342,1.25082 -1.1687,1.16873 -2.9775,1.63657 -4.3262,1.119 -1.6678,-0.64002 -2.0228,-0.41194 -1.2654,0.81334 0.7885,1.27583 0.3,1.46398 -1.9483,0.7504 -2.1795,-0.69173 -2.7268,-0.5093 -2,0.66667 0.7268,1.17597 0.1795,1.3584 -2,0.66667 -2.1795,-0.69174 -2.7268,-0.50931 -2,0.66666 0.7185,1.16254 0.2016,1.36546 -1.8331,0.71967 -1.6445,-0.52197 -2.8336,-0.31973 -2.8336,0.48197 0,0.75974 -0.9,1.03598 -2,0.61387 -1.1,-0.42212 -2,-0.12213 -2,0.66667 0,0.78877 -0.9,1.08877 -2,0.66666 -1.1,-0.42212 -2,-0.12213 -2,0.66667 0,0.78877 -0.9,1.08877 -2,0.66667 -1.1,-0.42212 -2,-0.18648 -2,0.52361 0,0.71009 -1.65,1.02732 -3.6666,0.70493 -2.9246,-0.46753 -3.2619,-0.28722 -1.6667,0.89096 1.5008,1.10847 -0.163,1.2758 -6.6667,0.67048 -6.3894,-0.59469 -8.1411,-0.42758 -6.6666,0.636 1.4797,1.06739 -0.081,1.2389 -6,0.65934 -4.4,-0.43083 -7.3075,-0.28476 -6.461,0.3246 0.8464,0.60934 -252.2609,1.1079 -562.46078,1.1079 -310.19986,0 -564.30788,-0.49861 -564.68448,-1.10804 z M 1296,598.61855 c 0,-0.39314 2.1,-0.64512 4.6667,-0.55995 2.5667,0.0852 4.6667,-0.32436 4.6667,-0.91004 0,-0.58568 0.9,-0.71951 2,-0.2974 1.1,0.42212 2,0.12213 2,-0.66667 0,-0.78877 0.9,-1.08877 2,-0.66666 1.1,0.42212 2,0.12213 2,-0.66667 0,-0.78877 0.9,-1.08877 2,-0.66667 1.1,0.42212 2,0.12214 2,-0.66666 0,-0.78878 0.9,-1.08878 2,-0.66667 1.1,0.42212 2,0.0679 2,-0.7872 0,-0.85507 0.6,-1.18385 1.3333,-0.73063 0.7333,0.45323 1.3333,0.15323 1.3333,-0.66666 0,-0.8199 0.6,-1.1199 1.3334,-0.66667 0.7333,0.45323 1.3333,0.15323 1.3333,-0.66667 0,-0.81989 0.6,-1.11989 1.3333,-0.66666 0.7334,0.45322 1.3334,0.15322 1.3334,-0.66667 0,-0.81989 0.6042,-1.11727 1.3427,-0.66084 0.7385,0.45641 1.7014,-0.10467 2.1397,-1.24699 0.4384,-1.14228 1.3341,-1.74489 1.9906,-1.33916 0.6566,0.40574 1.1936,0.003 1.1936,-0.89654 0,-0.89884 0.3812,-1.25302 0.8472,-0.78706 1.2532,1.25322 19.1886,-15.22532 24.2648,-22.29396 2.413,-3.35982 3.9351,-6.10878 3.3827,-6.10878 -0.5524,0 0.1027,-0.80898 1.4541,-1.79774 1.3523,-0.98874 2.0315,-2.48874 1.5096,-3.33333 -0.522,-0.84457 -0.4248,-1.5356 0.216,-1.5356 1.419,0 6.0468,-9.38989 5.0963,-10.34039 -0.3723,-0.37229 -0.1353,-1.68884 0.5267,-2.92564 0.6618,-1.23681 1.5308,-5.69901 1.9308,-9.91602 0.4001,-4.217 1.0676,-8.21771 1.4833,-8.89044 1.2739,-2.06111 1.7309,-342.59228 0.474,-353.15366 -1.2781,-10.73916 -6.3408,-28.10718 -8.1933,-28.10718 -0.6323,0 -0.7787,-0.6 -0.3255,-1.33334 C 1369.1199,132.6 1368.8199,132 1368,132 c -0.8198,0 -1.198,-0.47368 -0.8401,-1.05261 2.8927,-4.68045 -34.5249,-42.478649 -39.1941,-39.592879 -0.7145,0.441577 -1.2991,0.278585 -1.2991,-0.362206 0,-1.629606 -9.2449,-5.871016 -10.7582,-4.935712 -0.683,0.422099 -1.2418,0.122511 -1.2418,-0.665749 0,-0.788261 -1.65,-1.388347 -3.6667,-1.333521 -2.0166,0.05483 -5.7666,-0.224384 -8.3333,-0.620463 -2.5667,-0.396079 -7.0667,-1.060623 -10,-1.476765 -8.2199,-1.166128 -1130.00006,-1.432204 -1130.00004,-0.268026 1e-5,0.563972 -1.42522,0.667695 -3.16715,0.230496 -3.21751,-0.807541 -23.7518,5.600375 -24.61339,7.680831 -0.24597,0.593937 -0.99597,0.740737 -1.66666,0.326223 C 132.54876,89.515103 132,89.846775 132,90.666667 c 0,0.819892 -0.57811,1.133417 -1.2847,0.696722 -0.70658,-0.436693 -2.45658,0.377898 -3.88889,1.8102 -1.4323,1.432304 -2.95418,2.254188 -3.38196,1.826411 -0.42778,-0.427777 -0.77778,-0.04237 -0.77778,0.856467 0,0.898834 -0.53326,1.30467 -1.18503,0.901857 -1.61294,-0.996852 -18.44022,14.778956 -23.897819,22.404536 -2.428899,3.39376 -3.964222,6.17047 -3.411827,6.17047 0.552395,0 -0.101987,0.80898 -1.454187,1.79773 -1.352196,0.98875 -2.031464,2.48875 -1.509482,3.33333 0.521981,0.84459 0.424773,1.53561 -0.216018,1.53561 -1.418948,0 -6.046854,9.38989 -5.096364,10.34039 0.372296,0.37229 0.132334,1.69444 -0.533262,2.93812 -0.66559,1.24366 -1.532763,5.21477 -1.92705,8.82468 -0.394286,3.60992 -1.036285,8.96348 -1.426661,11.89681 -1.068084,8.02571 -1.484479,351.33352 -0.426129,351.33343 0.503896,-6e-5 0.57539,2.0999 0.158877,4.66657 -0.480804,2.96285 -0.222075,4.66667 0.708648,4.66667 0.806268,0 1.120581,0.9 0.698471,2 -0.42211,1.1 -0.122107,2 0.666666,2 0.788778,0 1.088778,0.9 0.666667,2 -0.422109,1.1 -0.122107,2 0.666667,2 0.788777,0 1.088777,0.9 0.666666,2 -0.422109,1.1 -0.122106,2 0.666667,2 0.788777,0 1.088777,0.9 0.666667,2 -0.42211,1.1 -0.06787,2 0.787202,2 0.855071,0 1.183855,0.6 0.73063,1.33333 -0.453226,0.73333 -0.153226,1.33333 0.666666,1.33333 0.819892,0 1.119892,0.6 0.666667,1.33334 C 89.546777,547.4 89.846777,548 90.666669,548 c 0.819892,0 1.133417,0.57812 0.696722,1.28471 -0.436693,0.70657 0.377898,2.45657 1.8102,3.88888 1.432304,1.4323 2.254189,2.95418 1.826411,3.38197 -0.427777,0.42777 -0.04237,0.77777 0.856467,0.77777 0.898835,0 1.260805,0.60424 0.80438,1.34275 -0.456427,0.73852 0.10472,1.70139 1.246985,2.13972 1.14227,0.43832 1.793532,1.25537 1.447254,1.81567 -1.488154,2.40789 22.325482,22.20902 33.311582,27.69872 7.87103,3.9331 20.61191,7.30597 24.19808,6.4059 1.90911,-0.47916 3.13525,-0.19633 3.13525,0.72318 0,0.91942 1.56455,1.28044 4,0.92298 2.2,-0.32289 4,-0.24098 4,0.182 2e-5,0.423 253.80002,0.76908 564.00003,0.76908 C 1042.2,599.33333 1296,599.01168 1296,598.61855 Z M 532.00001,479.57537 c 0,-0.75652 -3.0051,-0.97162 -7.33333,-0.52492 -4.67825,0.48284 -7.33333,0.25422 -7.33333,-0.63145 0,-0.78416 -1.74071,-1.13285 -4,-0.80125 -2.2,0.32289 -4.00001,0.0229 -4.00001,-0.66667 0,-0.68956 -1.78536,-0.99171 -3.96745,-0.67144 -2.18211,0.32025 -4.13211,0.21167 -4.33333,-0.24133 -0.45202,-1.01751 -23.98276,-8.75214 -25.36588,-8.33784 -0.55,0.16474 -1,-0.40047 -1,-1.25603 0,-0.85555 -0.32888,-1.22668 -0.73084,-0.82471 -0.84414,0.84414 -4.09826,-1.73905 -16.63392,-13.20433 -4.96188,-4.5382 -8.69879,-8.57408 -8.30424,-8.96861 0.39453,-0.39455 -0.2651,-1.09435 -1.46584,-1.55512 -1.20075,-0.46076 -1.86474,-1.353 -1.47554,-1.98275 0.3892,-0.62975 -0.46424,-2.31687 -1.89654,-3.74917 -1.43231,-1.43231 -2.25419,-2.95419 -1.82642,-3.38198 C 442.76112,432.35 442.43001,432 441.59741,432 c -0.83253,0 -1.16835,-0.9 -0.74624,-2 0.42212,-1.1 0.23185,-2 -0.4228,-2 -0.65464,0 -1.25968,-1.05 -1.34452,-2.33333 -0.0848,-1.28334 -1.10972,-4.88116 -2.27749,-7.99518 -8.52562,-22.73453 -4.22947,-67.18933 9.01938,-93.3291 1.94884,-3.84502 3.64244,-7.44502 3.76358,-8 0.12106,-0.55498 1.004,-1.79284 1.96197,-2.7508 0.95796,-0.95798 4.37885,-5.15798 7.60197,-9.33334 5.69062,-7.37186 21.70471,-22.95585 22.63423,-22.02632 0.25367,0.25367 1.97431,-0.89474 3.82364,-2.55202 1.84933,-1.65728 4.19337,-3.19622 5.20899,-3.41986 1.0156,-0.22362 2.44656,-1.17629 3.17989,-2.11702 0.73333,-0.94074 2.01369,-1.48098 2.84524,-1.20054 0.83155,0.28044 2.41012,-0.38833 3.50793,-1.48614 1.09782,-1.09782 2.36747,-1.6246 2.82143,-1.17063 0.45397,0.45396 0.8254,0.09 0.8254,-0.80885 0,-0.89884 0.6,-1.26343 1.33333,-0.8102 0.73334,0.45322 1.33334,0.20746 1.33334,-0.54614 0,-0.7536 0.9,-1.02481 2,-0.6027 1.1,0.42212 2,0.12213 2,-0.66667 0,-0.78877 0.9,-1.08877 2,-0.66667 1.1,0.42212 2,0.12214 2,-0.66666 0,-0.78878 0.9,-1.08878 2,-0.66667 1.1,0.42212 2,0.12213 2,-0.66667 0,-0.78877 0.9,-1.08877 2,-0.66666 1.1,0.42212 2,0.0919 2,-0.73391 0,-0.93569 1.25595,-1.18617 3.33333,-0.66477 1.91534,0.4807 3.33334,0.26101 3.33334,-0.51644 0,-0.74419 1.2,-1.03926 2.66666,-0.65571 1.46667,0.38355 2.66667,0.13133 2.66667,-0.56057 0,-0.69186 1.8,-0.99374 4,-0.67084 2.2,0.32289 4,0.0229 4,-0.66667 0,-0.68956 1.8,-0.98956 4,-0.66667 2.2,0.3229 4,0.007 4,-0.70186 0,-0.74326 2.82241,-1.01775 6.66667,-0.64836 3.66666,0.35232 6.66646,0.11426 6.66621,-0.52906 -2.5e-4,-0.6433 9.59941,-1.16964 21.33259,-1.16964 11.73317,0 21.33337,0.50791 21.33378,1.12868 4.2e-4,0.62079 3.00112,0.92079 6.66824,0.66667 3.66712,-0.25411 6.66712,0.0665 6.66667,0.71244 -4.5e-4,0.64596 2.06367,0.83944 4.58693,0.42997 2.59543,-0.42118 4.78348,-0.15738 5.03843,0.60746 0.24785,0.74356 2.97996,1.45008 6.07135,1.57002 3.0914,0.12 5.6241,0.60306 5.62825,1.07355 0.007,0.77465 1.80683,1.382 10.00755,3.37672 1.46666,0.35675 3.41666,0.70044 4.33333,0.76379 0.91667,0.0633 1.66667,0.65056 1.66667,1.30494 0,0.6544 0.6,0.81899 1.33333,0.36576 0.73334,-0.45322 1.33334,-0.15322 1.33334,0.66667 0,0.81989 0.6,1.11989 1.33333,0.66667 0.73333,-0.45323 1.33333,-0.15323 1.33333,0.66666 0,0.8199 0.6,1.1199 1.33334,0.66667 0.73333,-0.45323 1.33333,-0.25119 1.33333,0.44899 0,0.70016 2.95567,3.16966 6.56813,5.48778 16.7339,10.73811 28.28107,35.58246 28.19894,60.6715 -0.0227,6.94236 0.52988,10.97402 1.5991,11.66666 1.26004,0.81627 1.20823,1.33256 -0.22649,2.25678 -1.26623,0.81568 -1.59703,2.51488 -1.03584,5.3208 1.16123,5.80616 -1.3878,24.36433 -4.63551,33.74886 -1.5052,4.3494 -2.40492,8.23983 -1.99936,8.64538 0.40556,0.40556 -0.16856,1.64332 -1.27581,2.75057 -1.10725,1.10725 -1.71239,2.79705 -1.34475,3.75512 0.36766,0.95807 0.16819,1.93071 -0.44325,2.16141 -0.61144,0.23072 -2.88844,4.31948 -5.06,9.08615 -5.1712,11.35099 -14.35655,23.24148 -23.58625,30.53257 -4.08407,3.22626 -7.42558,6.41167 -7.42558,7.0787 0,0.66702 -0.55895,0.86733 -1.24211,0.44512 -0.68316,-0.42222 -2.08697,0.43856 -3.11958,1.91282 -1.03263,1.47427 -2.27368,2.28431 -2.7579,1.80008 -0.48422,-0.48422 -0.88041,-0.145 -0.88041,0.75384 0,0.89884 -0.6,1.26343 -1.33333,0.8102 -0.73334,-0.45322 -1.33334,-0.15322 -1.33334,0.66667 0,0.81989 -0.57812,1.13341 -1.2847,0.69672 -0.70658,-0.43669 -2.39408,0.3154 -3.75,1.67132 -1.35591,1.35591 -3.1778,2.22779 -4.04863,1.93752 -0.87084,-0.29028 -1.58333,0.15763 -1.58333,0.99535 0,0.83773 -0.6,1.15232 -1.33334,0.69909 -0.73333,-0.45323 -1.33333,-0.20747 -1.33333,0.54613 0,0.7536 -0.9,1.02482 -2,0.60271 -1.1,-0.42212 -2,-0.0679 -2,0.7872 0,0.85507 -0.6,1.18385 -1.33333,0.73063 -0.73334,-0.45323 -1.33334,-0.20747 -1.33334,0.54613 0,0.7536 -0.9,1.02481 -2,0.60271 -1.1,-0.42212 -2,-0.15946 -2,0.58368 0,0.74313 -1.2,1.03736 -2.66666,0.65381 -1.46667,-0.38355 -2.66667,-0.0461 -2.66667,0.74964 0,0.79585 -0.9,1.10164 -2,0.67953 -1.1,-0.42212 -2,-0.15945 -2,0.58368 0,0.74314 -1.2,1.03736 -2.66667,0.65382 -1.46666,-0.38355 -2.66666,-0.11054 -2.66666,0.6066 0,0.71716 -1.5,1.0172 -3.33334,0.66673 -1.9728,-0.37712 -3.33333,-0.0192 -3.33333,0.87696 0,0.94933 -1.24347,1.20209 -3.33333,0.67756 -1.91284,-0.48009 -3.33334,-0.26088 -3.33334,0.5144 0,0.80649 -2.1495,1.06269 -5.33333,0.63564 -3.25296,-0.43631 -5.33333,-0.17609 -5.33333,0.66711 0,0.88138 -2.89963,1.11953 -8,0.65704 -4.72766,-0.42868 -8,-0.20167 -8,0.55501 0,0.75005 -6.90359,1.28043 -16.66667,1.28043 -9.77529,0 -16.66667,-0.53 -16.66667,-1.28178 z m 21.33334,-26.33189 c 0,-0.81641 1.13692,-1.06233 2.66666,-0.57681 1.58932,0.50442 2.66667,0.2396 2.66667,-0.65551 0,-0.82603 0.55163,-1.16095 1.22584,-0.74427 0.67421,0.4167 2.10279,-0.11933 3.1746,-1.19114 1.07183,-1.07182 2.22944,-1.6681 2.57249,-1.32504 1.09343,1.09344 13.19892,-12.7273 12.35035,-14.10031 -0.44769,-0.72439 -0.18869,-1.31707 0.57557,-1.31707 1.59935,0 8.63232,-13.24661 7.58762,-14.2913 -0.38106,-0.38106 0.21312,-1.59876 1.32037,-2.70602 1.10725,-1.10725 1.69751,-2.83582 1.31169,-3.84126 -0.38582,-1.00544 -0.15762,-1.82808 0.50712,-1.82808 0.66474,0 1.22422,-1.05 1.24328,-2.33334 0.0191,-1.28333 1.49187,-7.73333 3.27288,-14.33333 3.70358,-13.72444 7.43228,-34.54732 7.83235,-43.73947 0.14985,-3.44329 0.76829,-6.26053 1.37432,-6.26053 1.88759,0 0.51909,-49.71081 -1.38597,-50.34583 -0.90519,-0.30173 -1.30664,-1.09736 -0.89212,-1.76805 0.4145,-0.67069 0.0828,-1.21945 -0.73706,-1.21945 -0.81989,0 -1.14958,-0.55196 -0.73265,-1.22658 1.04364,-1.68862 -6.00489,-7.03153 -8.17676,-6.1981 -0.96649,0.37088 -1.75725,0.0931 -1.75725,-0.61716 0,-0.71032 -2.1,-1.2915 -4.66667,-1.2915 -2.56667,0 -4.66667,0.64043 -4.66667,1.42319 0,0.81641 -1.13692,1.06233 -2.66666,0.57681 -1.58932,-0.50442 -2.66667,-0.2396 -2.66667,0.65551 0,0.82603 -0.6,1.13105 -1.33333,0.67783 -0.73334,-0.45323 -1.33334,-0.15323 -1.33334,0.66666 0,0.8199 -0.60424,1.11727 -1.34274,0.66084 -0.73852,-0.45641 -1.70139,0.10467 -2.13972,1.24699 -0.43832,1.14228 -1.2837,1.77604 -1.87858,1.40839 -1.14466,-0.70744 -11.01109,10.08942 -10.0752,11.02532 0.30104,0.30104 -0.62453,1.71924 -2.05684,3.15154 -1.4323,1.43231 -2.24689,3.18231 -1.8102,3.88888 0.4367,0.70659 0.17399,1.28471 -0.58378,1.28471 -1.60812,0 -5.97746,7.91325 -4.94142,8.94931 0.38583,0.38581 -0.118,1.52097 -1.11958,2.52257 -2.43435,2.43433 -7.80479,18.77063 -6.73811,20.49655 0.46395,0.75069 0.30815,1.3649 -0.34625,1.3649 -0.65439,0 -1.23318,0.75 -1.28618,1.66667 -0.0531,0.91667 -1.35258,7.46549 -2.88794,14.55295 -3.57531,16.50417 -6.9559,45.30154 -5.92382,50.46189 0.50708,2.5354 0.25135,3.98516 -0.70297,3.98516 -0.825,0 -1.5,0.9 -1.5,2 0,1.1 0.67749,2 1.50556,2 1.0518,0 1.23276,2.41109 0.60045,8 -0.5807,5.13272 -0.41848,8 0.4526,8 0.74674,0 1.01234,0.9 0.59023,2 -0.42247,1.10092 -0.0399,2 0.85116,2 0.891,0 1.27363,0.89908 0.85116,2 -0.42211,1.1 -0.15089,2 0.60271,2 0.7536,0 0.99936,0.6 0.54613,1.33333 -0.45323,0.73334 -0.15323,1.33334 0.66667,1.33334 0.81989,0 1.15725,0.53956 0.74968,1.19901 -1.2964,2.09761 8.51494,9.66916 11.35956,8.76632 1.43066,-0.45408 2.55742,-0.18467 2.55742,0.61148 0,0.78276 1.2,1.42319 2.66667,1.42319 1.46667,0 2.66667,-0.64043 2.66667,-1.42319 z M 1132,479.80473 c -33.0111,-1.21942 -44.5898,-3.73206 -67.3333,-14.61164 -33.5141,-16.0318 -49.784,-60.4655 -39.25,-107.19309 1.4879,-6.6 2.9006,-13.2 3.1395,-14.66667 0.4804,-2.95038 1.3148,-5.28602 4.8819,-13.66666 1.3266,-3.11667 1.9957,-5.67586 1.487,-5.68708 -0.5088,-0.0107 -0.28,-0.46123 0.5083,-1 0.7884,-0.53878 4.0428,-4.87959 7.232,-9.64626 5.9792,-8.93678 25.872,-29.68482 27.1938,-28.36301 0.4096,0.40957 1.1217,-0.23775 1.5825,-1.43849 0.4608,-1.20075 1.3791,-1.8486 2.0408,-1.43966 0.6617,0.40894 1.5617,-0.19106 2,-1.33333 0.4383,-1.14228 1.3341,-1.74489 1.9906,-1.33916 0.6565,0.40573 1.1936,0.10227 1.1936,-0.67432 0,-0.77661 0.4622,-1.26203 1.0271,-1.07869 1.6464,0.53428 12.3062,-4.61787 12.3062,-5.94786 0,-0.66524 0.6,-0.8387 1.3334,-0.38548 0.7333,0.45323 1.3333,0.15323 1.3333,-0.66666 0,-0.8199 0.6,-1.1199 1.3333,-0.66667 0.7334,0.45323 1.3334,0.20747 1.3334,-0.54613 0,-0.7536 0.9,-1.02482 2,-0.60271 1.1,0.42212 2,0.12213 2,-0.66667 0,-0.78877 0.8393,-1.11206 1.8651,-0.71841 1.0258,0.39364 2.2673,0.0651 2.7588,-0.73027 0.4915,-0.79529 1.4522,-1.10078 2.1349,-0.67886 0.6826,0.4219 1.2412,0.15052 1.2412,-0.60308 0,-0.7536 0.9,-1.02482 2,-0.60271 1.1,0.42212 2,0.12213 2,-0.66667 0,-0.78877 0.9,-1.08877 2,-0.66666 1.1,0.42212 2,0.0628 2,-0.79836 0,-0.95907 1.0333,-1.23787 2.6666,-0.71947 1.5497,0.49185 2.6667,0.2396 2.6667,-0.60221 0,-0.87938 1.3098,-1.11984 3.3333,-0.61198 2.0793,0.52186 3.3334,0.27104 3.3334,-0.66666 0,-0.93771 1.2541,-1.18854 3.3333,-0.66667 1.9636,0.49281 3.3333,0.26375 3.3333,-0.55744 0,-0.84856 1.8261,-1.09772 4.6667,-0.63676 2.8177,0.45725 4.6667,0.21 4.6667,-0.62405 0,-0.88003 2.9033,-1.11808 8,-0.65594 4.4,0.39898 7.9998,0.19208 7.9995,-0.45977 -2e-4,-0.65185 9.5994,-1.18519 21.3326,-1.18519 11.7332,0 21.3334,0.52634 21.3338,1.16964 4e-4,0.64331 3.0007,0.88138 6.6674,0.52906 3.6667,-0.35232 6.6667,-0.18866 6.6667,0.36369 0,0.55236 1.963,1.00428 4.3623,1.00428 4.4976,0 14.2745,2.16479 18.971,4.20052 1.4667,0.63573 6.7167,2.97917 11.6667,5.20763 4.95,2.22846 9,3.75644 9,3.3955 0,-0.36093 3.335,2.75975 7.4112,6.93486 7.5365,7.71937 14.0293,18.5066 12.9577,21.52816 -0.3252,0.91666 -0.027,1.66666 0.6621,1.66666 0.7261,0 1.2035,7.57174 1.1351,18 -0.065,9.9 -0.6489,18 -1.2976,18 -0.6487,0 -0.8927,1.5 -0.5422,3.33334 0.3505,1.83333 0.05,3.33333 -0.6667,3.33333 -0.7172,0 -0.9902,1.2 -0.6066,2.66667 0.3835,1.46666 0.089,2.66666 -0.6539,2.66666 -0.7431,0 -1.0058,0.9 -0.5836,2 0.4221,1.1 0.1863,2 -0.524,2 -0.7104,0 -1.2915,0.88671 -1.2915,1.97047 0,1.08375 -1.65,5.35015 -3.6667,9.48089 l -3.6667,7.51043 -54,-0.68583 c -29.7,-0.3772 -62.9996,-0.2936 -73.9991,0.18578 l -19.9991,0.8716 -1.6373,10.66666 c -2.0193,13.15658 -3.0778,46 -1.4823,46 0.6427,0 0.7922,1.5 0.332,3.33334 -0.5045,2.0101 -0.2665,3.33333 0.5994,3.33333 0.7899,0 1.0907,0.9 0.6686,2 -0.4221,1.1 -0.068,2 0.7872,2 0.8551,0 1.2061,0.56408 0.78,1.25351 -1.0047,1.62554 7.1763,10.97044 8.7516,9.99681 0.6595,-0.40757 1.199,-0.18063 1.199,0.50432 0,1.09911 2.3281,1.52947 9.3334,1.72539 1.1,0.0308 3.8,-0.68655 6,-1.59403 2.2,-0.90747 4.45,-1.55307 5,-1.43464 0.55,0.1184 1,-0.42011 1,-1.19672 0,-0.77661 0.6042,-1.03857 1.3427,-0.58215 0.7385,0.45642 1.7014,-0.10466 2.1397,-1.24698 0.4383,-1.14228 1.2671,-1.78631 1.8417,-1.4312 1.2068,0.74588 19.1966,-17.91796 18.216,-18.89856 -0.3582,-0.35822 0.5206,-1.82319 1.9529,-3.2555 1.4323,-1.4323 2.2469,-3.1823 1.8102,-3.88888 -0.4367,-0.70658 -0.1231,-1.2847 0.6968,-1.2847 0.8199,0 1.1199,-0.6 0.6666,-1.33334 C 1181.5468,416.6 1181.7463,416 1182.4435,416 c 0.6971,0 1.6439,-1.5 2.104,-3.33333 l 0.8367,-3.33334 h 38.0805 38.0805 l -1.0496,4.33334 c -0.5773,2.38333 -1.0749,5.98333 -1.1059,8 -0.031,2.01666 -0.5763,3.66666 -1.2118,3.66666 -0.6356,0 -0.8418,1.2 -0.4582,2.66667 0.3835,1.46667 0.084,2.66667 -0.6667,2.66667 -0.7502,0 -1.0502,1.2 -0.6666,2.66666 0.3835,1.46667 0.084,2.66667 -0.6667,2.66667 -0.7502,0 -1.0502,1.2 -0.6667,2.66667 0.3836,1.46666 0.084,2.66666 -0.6666,2.66666 -0.7503,0 -1.0503,1.2 -0.6667,2.66667 0.3835,1.46667 0.084,2.66667 -0.6667,2.66667 -0.7502,0 -1.0502,1.2 -0.6666,2.66666 0.3835,1.46667 0.2285,2.66667 -0.3445,2.66667 -0.573,0 -1.4028,1.80469 -1.844,4.01041 -0.4411,2.20574 -1.2661,3.86307 -1.8333,3.68298 -1.7089,-0.54262 -9.6979,3.20318 -9.6979,4.54706 0,0.68764 -0.6,0.87944 -1.3333,0.42622 C 1236.6,464.21344 1236,464.4592 1236,465.2128 c 0,0.7536 -0.9,1.02481 -2,0.60271 -1.1,-0.42212 -2,-0.12214 -2,0.66666 0,0.78878 -0.9,1.08878 -2,0.66667 -1.1,-0.42212 -2,-0.12213 -2,0.66667 0,0.78877 -0.9,1.08877 -2,0.66666 -1.1,-0.42212 -2,-0.12213 -2,0.66667 0,0.78877 -0.9,1.08877 -2,0.66667 -1.1,-0.42212 -2,-0.15946 -2,0.58368 0,0.74313 -1.2,1.03736 -2.6666,0.65381 -1.4667,-0.38355 -2.6667,-0.0836 -2.6667,0.66667 0,0.75021 -1.2,1.05021 -2.6667,0.66666 -1.4666,-0.38354 -2.6666,-0.0836 -2.6666,0.66667 0,0.75021 -1.2,1.05021 -2.6667,0.66667 -1.4667,-0.38355 -2.6667,-0.0424 -2.6667,0.75816 0,0.90612 -1.5098,1.15354 -4,0.6555 -2.2031,-0.44061 -4,-0.22989 -4,0.46908 0,0.69799 -1.8,1.0049 -4,0.682 -2.2101,-0.32438 -4,0.0205 -4,0.77071 0,0.81443 -2.1343,1.07152 -5.3333,0.64244 -3.1936,-0.42835 -5.3333,-0.17157 -5.3333,0.64001 0,0.85059 -3.2277,1.09627 -8.6667,0.65968 -4.907,-0.39389 -8.6667,-0.16202 -8.6667,0.53448 0,0.6766 -1.05,1.20875 -2.3333,1.18255 -1.2833,-0.0261 -12.8333,-0.43548 -25.6667,-0.90955 z m 61.8148,-125.4714 C 1193.713,353.05 1194.2311,352 1194.9662,352 c 0.7351,0 1.0745,-1.78536 0.7542,-3.96745 -0.3203,-2.18211 -0.016,-4.15624 0.6763,-4.38698 1.8422,-0.61408 2.7168,-46.31224 0.8864,-46.31224 -0.7923,0 -1.0696,-0.6 -0.6164,-1.33333 0.4532,-0.73333 0.1532,-1.33333 -0.6667,-1.33333 -0.8199,0 -1.1199,-0.6 -0.6666,-1.33334 C 1195.7866,292.6 1195.4866,292 1194.6667,292 c -0.8199,0 -1.1441,-0.56089 -0.7204,-1.24643 0.4237,-0.68553 -1.4442,-2.93553 -4.1508,-5 -5.3708,-4.09645 -20.2908,-5.60104 -21.4372,-2.16181 -0.2918,0.87548 -1.3867,1.26323 -2.4332,0.86167 -1.0464,-0.40156 -2.2705,0.2287 -2.7202,1.40057 -0.4497,1.17188 -1.2554,1.86015 -1.7904,1.52949 -2.3053,-1.42477 -21.0523,21.8676 -19.1396,23.78026 0.4599,0.45993 0.1008,0.83625 -0.798,0.83625 -0.8988,0 -1.2634,0.6 -0.8102,1.33333 0.4532,0.73334 0.1532,1.33334 -0.6667,1.33334 -0.8199,0 -1.1199,0.6 -0.6666,1.33333 0.4532,0.73333 0.2849,1.33333 -0.374,1.33333 -1.6273,0 -4.5148,6.5619 -3.5643,8.09992 0.4193,0.67838 0.1856,1.23342 -0.5193,1.23342 -1.5237,0 -4.4661,7.83874 -3.5182,9.37261 0.3625,0.58647 0.01,1.28328 -0.7876,1.54849 -0.7956,0.26522 -1.6682,2.56646 -1.9391,5.11388 -0.2709,2.54743 -1.0765,6.56306 -1.7901,8.92362 l -1.2975,4.29192 15.5617,0.43865 c 37.8475,1.06681 52.9092,0.48889 52.7098,-2.02251 z M 713.33283,475.66667 c 2.9e-4,-0.55 0.67047,-1 1.48929,-1 0.86343,0 1.22486,-1.38058 0.86046,-3.28682 -0.34558,-1.80776 -0.0637,-3.47504 0.62646,-3.70508 0.69014,-0.23005 1.35294,-2.94758 1.47288,-6.03897 0.12,-3.0914 0.73804,-5.62411 1.37354,-5.62825 0.63548,-0.004 0.86869,-1.50755 0.51822,-3.34088 -0.35046,-1.83334 -0.0505,-3.33334 0.66667,-3.33334 0.71713,0 1.01713,-1.5 0.66667,-3.33333 -0.35047,-1.83333 -0.0504,-3.33333 0.66673,-3.33333 0.71717,0 0.99015,-1.2 0.6066,-2.66667 -0.38355,-1.46667 -0.0836,-2.66667 0.6666,-2.66667 0.75016,0 1.0772,-1.5 0.72673,-3.33333 -0.35046,-1.83333 -0.0505,-3.33333 0.66667,-3.33333 0.71713,0 1.01713,-1.5 0.66667,-3.33334 C 724.65655,425.5 724.95648,424 725.67368,424 c 0.71714,0 1.01714,-1.5 0.66667,-3.33333 -0.35047,-1.83334 -0.0504,-3.33334 0.66673,-3.33334 0.71718,0 0.99015,-1.2 0.6066,-2.66666 C 727.23014,413.2 727.53008,412 728.28028,412 c 0.75016,0 1.0772,-1.5 0.72674,-3.33333 -0.35047,-1.83334 -0.0505,-3.33334 0.66666,-3.33334 0.71714,0 1.02114,-1.47906 0.67556,-3.28681 -0.34557,-1.80776 -0.0637,-3.47504 0.62647,-3.70508 0.69013,-0.23005 1.35293,-2.94759 1.47288,-6.03897 0.12,-3.0914 0.73804,-5.62411 1.37353,-5.62826 0.63548,-0.004 0.8687,-1.50754 0.51823,-3.34088 C 733.98988,381.5 734.28982,380 735.00702,380 c 0.71713,0 1.01713,-1.5 0.66666,-3.33333 -0.35046,-1.83334 -0.0504,-3.33334 0.66674,-3.33334 0.71717,0 0.99014,-1.2 0.6066,-2.66666 C 736.56347,369.2 736.86342,368 737.61362,368 c 0.75016,0 1.0772,-1.5 0.72673,-3.33333 -0.35047,-1.83334 -0.0505,-3.33334 0.66667,-3.33334 0.71713,0 1.01713,-1.5 0.66666,-3.33333 -0.35046,-1.83333 -0.0505,-3.33333 0.66667,-3.33333 0.71713,0 1.01713,-1.5 0.66667,-3.33334 C 740.65655,349.5 740.95662,348 741.67375,348 c 0.71717,0 0.99015,-1.2 0.6066,-2.66667 -0.38355,-1.46666 -0.0836,-2.66666 0.6666,-2.66666 0.75016,0 1.0772,-1.5 0.72673,-3.33334 C 743.32322,337.5 743.62315,336 744.34035,336 c 0.71713,0 1.01713,-1.5 0.66667,-3.33333 -0.35047,-1.83334 -0.0504,-3.33334 0.66673,-3.33334 0.71717,0 0.99015,-1.2 0.6066,-2.66666 C 745.8968,325.2 746.19675,324 746.94695,324 c 0.75016,0 1.0772,-1.5 0.72673,-3.33333 -0.35046,-1.83334 -0.0505,-3.33334 0.66667,-3.33334 0.71713,0 1.01713,-1.5 0.66667,-3.33333 -0.35047,-1.83333 -0.0505,-3.33333 0.66666,-3.33333 0.71714,0 1.01714,-1.5 0.66667,-3.33334 C 749.98988,305.5 750.28995,304 751.00708,304 c 0.71718,0 0.99015,-1.2 0.6066,-2.66667 -0.38354,-1.46666 -0.0836,-2.66666 0.6666,-2.66666 0.75016,0 1.0772,-1.5 0.72674,-3.33334 C 752.65655,293.5 752.95648,292 753.67368,292 c 0.71714,0 1.01714,-1.5 0.66667,-3.33333 -0.35047,-1.83334 -0.0505,-3.33334 0.66667,-3.33334 0.71713,0 1.01713,-1.5 0.66666,-3.33333 -0.35046,-1.83333 -0.0504,-3.33333 0.66674,-3.33333 0.71717,0 0.99014,-1.2 0.6066,-2.66667 -0.38355,-1.46667 -0.0836,-2.66667 0.6666,-2.66667 0.75016,0 1.0772,-1.5 0.72673,-3.33333 -0.35047,-1.83333 -0.1204,-3.33333 0.51123,-3.33333 0.63164,0 1.14844,-1.2 1.14844,-2.66667 0,-2.60613 0.88889,-2.66667 39.15569,-2.66667 h 39.1557 l 4.52133,16.33334 c 4.92541,17.79306 9.40765,22.15173 14.82545,14.41674 1.0529,-1.50321 2.23587,-2.41158 2.62884,-2.01861 0.39298,0.39297 2.22243,-1.07757 4.06546,-3.26789 1.84302,-2.19031 3.60944,-3.7239 3.92536,-3.40798 0.31592,0.31594 2.73716,-1.36733 5.38052,-3.74058 2.64336,-2.37327 5.59593,-4.51312 6.56126,-4.75526 0.96534,-0.24213 2.06083,-0.91344 2.43444,-1.4918 0.96706,-1.49706 14.47711,-8.18213 17.84707,-8.83113 1.55288,-0.29905 3.02664,-1.15343 3.27503,-1.89859 0.24838,-0.74517 1.00037,-1.0157 1.67106,-0.60118 0.6707,0.4145 1.21946,0.13708 1.21946,-0.61652 0,-0.7536 0.9,-1.02482 2,-0.60271 1.1,0.42212 2,0.15945 2,-0.58368 0,-0.74313 1.2,-1.03736 2.66666,-0.65381 1.46667,0.38354 2.66667,0.0836 2.66667,-0.66667 0,-0.75021 1.2,-1.05021 2.66667,-0.66667 1.46666,0.38355 2.66666,0.13134 2.66666,-0.56057 0,-0.69185 1.8,-0.99373 4,-0.67084 2.2,0.32289 4,0.0689 4,-0.56425 0,-0.63324 5.4,-1.15134 12,-1.15134 6.6,0 12.00001,0.5181 12.00001,1.15134 0,0.63322 1.8,0.88714 4,0.56425 2.2,-0.32289 4,-0.0211 4,0.67084 0,0.69187 1.17122,0.95164 2.60273,0.57729 1.43151,-0.37434 2.78151,-0.27226 3,0.22684 0.21849,0.49912 3.98961,2.64919 8.38025,4.77795 26.03336,12.62203 29.64136,29.51953 18.08516,84.69816 -2.99489,14.3 -5.56628,27.35 -5.71418,29 -0.14791,1.65 -0.618,3 -1.04467,3 -1.19203,0 -4.20187,15.88911 -3.28949,17.36537 0.44233,0.71571 0.0989,1.3013 -0.76322,1.3013 -0.95298,0 -1.31766,1.30672 -0.93025,3.33333 0.35047,1.83333 0.0504,3.33333 -0.66673,3.33333 -0.71718,0 -0.99015,1.2 -0.6066,2.66667 0.38354,1.46667 0.0836,2.66667 -0.6666,2.66667 -0.75016,0 -1.0772,1.5 -0.72674,3.33333 0.35047,1.83333 0.0505,3.33333 -0.66666,3.33333 -0.71714,0 -1.01714,1.5 -0.66667,3.33334 0.35047,1.83333 0.0504,3.33333 -0.66673,3.33333 -0.71718,0 -0.99015,1.2 -0.6066,2.66667 0.38354,1.46666 0.0836,2.66666 -0.6666,2.66666 -0.75016,0 -1.0772,1.5 -0.72674,3.33334 0.35047,1.83333 0.0505,3.33333 -0.66666,3.33333 -0.71714,0 -1.01714,1.5 -0.66667,3.33333 0.35047,1.83334 0.0504,3.33334 -0.66673,3.33334 -0.71718,0 -0.99015,1.2 -0.6066,2.66666 0.38354,1.46667 0.0836,2.66667 -0.6666,2.66667 -0.75016,0 -1.0772,1.5 -0.72674,3.33333 0.35047,1.83334 0.0505,3.33334 -0.66666,3.33334 -0.71714,0 -1.01714,1.5 -0.66667,3.33333 0.35047,1.83333 0.0504,3.33333 -0.66673,3.33333 -0.71718,0 -0.99015,1.2 -0.6066,2.66667 0.38354,1.46667 0.0836,2.66667 -0.6666,2.66667 -0.75016,0 -1.0998,1.38176 -0.77696,3.07058 0.32284,1.68883 -0.16607,3.77406 -1.08647,4.63383 -1.89907,1.774 -97.85783,3.04445 -97.85687,1.29559 3.1e-4,-0.55 0.67051,-1 1.48933,-1 0.86906,0 1.22352,-1.38754 0.85156,-3.33334 C 869.98989,469.5 870.28982,468 871.00702,468 c 0.71713,0 1.01713,-1.5 0.66667,-3.33333 -0.35047,-1.83334 -0.0504,-3.33334 0.66673,-3.33334 0.71717,0 0.99015,-1.2 0.6066,-2.66666 C 872.56347,457.2 872.86342,456 873.61362,456 c 0.75016,0 1.0772,-1.5 0.72673,-3.33333 -0.35046,-1.83334 -0.0505,-3.33334 0.66667,-3.33334 0.71713,0 1.01713,-1.5 0.66667,-3.33333 -0.35047,-1.83333 -0.0505,-3.33333 0.66666,-3.33333 0.71714,0 1.01714,-1.5 0.66667,-3.33334 C 876.65655,437.5 876.95662,436 877.67375,436 c 0.71718,0 0.99015,-1.2 0.6066,-2.66667 -0.38354,-1.46666 -0.0836,-2.66666 0.6666,-2.66666 0.75016,0 1.0772,-1.5 0.72674,-3.33334 C 879.32322,425.5 879.62315,424 880.34035,424 c 0.71714,0 1.02114,-1.47907 0.67556,-3.28681 -0.34557,-1.80776 -0.0637,-3.47504 0.62647,-3.70508 0.69013,-0.23006 1.35293,-2.94759 1.47288,-6.03898 0.12,-3.0914 0.73804,-5.6241 1.37353,-5.62825 0.63548,-0.004 0.8687,-1.50755 0.51823,-3.34088 -0.35047,-1.83333 -0.0505,-3.33333 0.66667,-3.33333 0.71713,0 1.02113,-1.47907 0.67556,-3.28682 -0.34558,-1.80776 -0.0637,-3.47504 0.62646,-3.70508 0.69014,-0.23005 1.35294,-2.94758 1.47288,-6.03897 0.12,-3.0914 0.73804,-5.62411 1.37354,-5.62825 0.63548,-0.004 0.86869,-1.50755 0.51822,-3.34088 -0.35046,-1.83334 -0.0505,-3.33334 0.66667,-3.33334 0.71713,0 1.02113,-1.47906 0.67556,-3.28681 -0.34557,-1.80776 -0.0637,-3.47504 0.62647,-3.70508 0.69013,-0.23005 1.35293,-2.94759 1.47288,-6.03897 0.12,-3.0914 0.73804,-5.62411 1.37353,-5.62826 0.63548,-0.004 0.86869,-1.50754 0.51823,-3.34088 C 895.32322,349.5 895.55329,348 896.18491,348 c 0.63164,0 1.14844,-1.96924 1.14844,-4.37609 0,-2.40686 0.7579,-7.35686 1.68422,-11 0.92632,-3.64315 1.53486,-9.62391 1.35233,-13.29058 -0.18253,-3.66666 -0.37772,-7.71666 -0.43375,-9 C 899.88015,309.05 899.17158,308 898.36159,308 c -0.80997,0 -1.09233,-0.38035 -0.62746,-0.84521 0.88337,-0.88338 -3.99115,-7.80634 -5.52154,-7.84187 -0.48358,-0.0107 -1.6907,-0.53464 -2.6825,-1.16312 -2.39203,-1.51577 -16.19674,-2.09076 -16.19674,-0.6746 0,0.60928 -0.9,0.76241 -2,0.34031 -1.1,-0.42212 -2,-0.0679 -2,0.7872 0,0.85506 -0.6,1.18385 -1.33333,0.73062 -0.73333,-0.45322 -1.33333,-0.15322 -1.33333,0.66667 0,0.81989 -0.60424,1.11727 -1.34275,0.66084 -0.73852,-0.45641 -1.70139,0.10467 -2.13972,1.24699 -0.43832,1.14228 -1.29304,1.77026 -1.89935,1.39554 -0.60632,-0.37473 -2.04345,0.66223 -3.19362,2.30434 -1.15018,1.6421 -2.09123,2.43037 -2.09123,1.7517 0,-0.67866 -2.37515,1.08534 -5.27811,3.92 -2.90296,2.83467 -4.99922,5.60519 -4.65836,6.15672 0.34086,0.55152 -0.0359,1.22131 -0.83713,1.4884 -0.80129,0.2671 -1.55503,3.01495 -1.67497,6.10634 -0.12,3.0914 -0.73804,5.6241 -1.37354,5.62825 -0.63548,0.004 -0.86869,1.50755 -0.51822,3.34088 0.35046,1.83333 0.0505,3.33333 -0.66667,3.33333 -0.71713,0 -1.01713,1.5 -0.66667,3.33334 0.35047,1.83333 0.0504,3.33333 -0.66673,3.33333 -0.71717,0 -0.99015,1.2 -0.6066,2.66667 0.38355,1.46666 0.0836,2.66666 -0.6666,2.66666 -0.75016,0 -1.0772,1.5 -0.72673,3.33334 0.35046,1.83333 0.0505,3.33333 -0.66667,3.33333 -0.71713,0 -1.02113,1.47907 -0.67556,3.28681 0.34557,1.80776 0.0637,3.47504 -0.62647,3.70508 -0.69013,0.23006 -1.35293,2.94759 -1.47288,6.03898 -0.12,3.0914 -0.73804,5.6241 -1.37353,5.62825 -0.63548,0.004 -0.86869,1.50755 -0.51823,3.34088 0.35047,1.83333 0.0505,3.33333 -0.66666,3.33333 -0.71714,0 -1.01714,1.5 -0.66667,3.33334 0.35047,1.83333 0.0504,3.33333 -0.66673,3.33333 -0.71718,0 -0.99015,1.2 -0.6066,2.66667 0.38354,1.46666 0.0836,2.66666 -0.6666,2.66666 -0.75016,0 -1.0772,1.5 -0.72674,3.33334 0.35047,1.83333 0.0505,3.33333 -0.66666,3.33333 -0.71714,0 -1.02114,1.47907 -0.67556,3.28681 0.34557,1.80776 0.0637,3.47504 -0.62647,3.70508 -0.69013,0.23006 -1.35293,2.94759 -1.47288,6.03898 -0.12,3.0914 -0.73804,5.6241 -1.37353,5.62825 -0.63548,0.004 -0.8687,1.50755 -0.51823,3.34088 0.35047,1.83333 0.0505,3.33333 -0.66667,3.33333 -0.71713,0 -1.01713,1.5 -0.66666,3.33334 0.35046,1.83333 0.0504,3.33333 -0.66674,3.33333 -0.71717,0 -0.99014,1.2 -0.6066,2.66667 0.38355,1.46666 0.0836,2.66666 -0.6666,2.66666 -0.75016,0 -1.0772,1.5 -0.72673,3.33334 0.35047,1.83333 0.0505,3.33333 -0.66667,3.33333 -0.71713,0 -1.02113,1.47907 -0.67556,3.28681 0.34558,1.80776 0.0637,3.47504 -0.62646,3.70508 -0.69014,0.23006 -1.35294,2.94759 -1.47288,6.03898 -0.12,3.0914 -0.73804,5.6241 -1.37354,5.62825 -0.63548,0.004 -0.86869,1.50755 -0.51822,3.34088 0.35046,1.83333 0.0505,3.33333 -0.66667,3.33333 -0.71713,0 -1.01981,1.48599 -0.67261,3.3022 l 0.63125,3.30222 -49.80967,0.36445 c -27.39532,0.20045 -49.80944,-0.0855 -49.80916,-0.63553 z M 238.1845,474 c -0.42211,-1.1 -0.1164,-2 0.67945,-2 0.81896,0 1.17424,-1.42648 0.81862,-3.28681 -0.34558,-1.80776 -0.0637,-3.47504 0.62646,-3.70508 0.69014,-0.23006 1.35294,-2.94759 1.47288,-6.03898 0.12,-3.0914 0.73804,-5.6241 1.37354,-5.62825 0.63548,-0.004 0.86869,-1.50755 0.51822,-3.34088 -0.35046,-1.83333 -0.0504,-3.33333 0.66667,-3.33333 0.71713,0 1.01713,-1.5 0.66667,-3.33334 C 244.65654,441.5 244.95661,440 245.67374,440 c 0.71717,0 0.99015,-1.2 0.6066,-2.66667 -0.38355,-1.46666 -0.0836,-2.66666 0.6666,-2.66666 0.75016,0 1.0772,-1.5 0.72673,-3.33334 C 247.32321,429.5 247.62327,428 248.34034,428 c 0.71713,0 1.01713,-1.5 0.66667,-3.33333 -0.35047,-1.83334 -0.0504,-3.33334 0.66673,-3.33334 0.71717,0 0.99015,-1.2 0.6066,-2.66666 C 249.89679,417.2 250.19674,416 250.94694,416 c 0.75016,0 1.0772,-1.5 0.72673,-3.33333 -0.35046,-1.83334 -0.0504,-3.33334 0.66667,-3.33334 0.71713,0 1.01713,-1.5 0.66667,-3.33333 -0.35047,-1.83333 -0.0504,-3.33333 0.66673,-3.33333 0.71717,0 0.99015,-1.2 0.6066,-2.66667 -0.38355,-1.46667 -0.0836,-2.66667 0.6666,-2.66667 0.75016,0 1.0772,-1.5 0.72673,-3.33333 -0.35046,-1.83333 -0.0504,-3.33333 0.66667,-3.33333 0.71713,0 1.01713,-1.5 0.66667,-3.33334 C 256.65654,385.5 256.95661,384 257.67367,384 c 0.71714,0 1.01714,-1.5 0.66667,-3.33333 -0.35047,-1.83334 -0.0504,-3.33334 0.66673,-3.33334 0.71718,0 0.99015,-1.2 0.6066,-2.66666 C 259.23013,373.2 259.53007,372 260.28027,372 c 0.75016,0 1.0772,-1.5 0.72674,-3.33333 -0.35047,-1.83334 -0.0504,-3.33334 0.66666,-3.33334 0.71714,0 1.01714,-1.5 0.66667,-3.33333 -0.35047,-1.83333 -0.0504,-3.33333 0.66673,-3.33333 0.71718,0 0.99015,-1.2 0.6066,-2.66667 -0.38354,-1.46667 -0.0836,-2.66667 0.6666,-2.66667 0.75016,0 1.0772,-1.5 0.72674,-3.33333 -0.35047,-1.83333 -0.0504,-3.33333 0.66666,-3.33333 0.71714,0 1.01714,-1.5 0.66667,-3.33334 C 265.98987,341.5 266.28994,340 267.00707,340 c 0.71718,0 0.99015,-1.2 0.6066,-2.66667 -0.38354,-1.46666 -0.0836,-2.66666 0.6666,-2.66666 0.75016,0 1.0772,-1.5 0.72674,-3.33334 C 268.65654,329.5 268.95661,328 269.67367,328 c 0.71714,0 1.02114,-1.47907 0.67556,-3.28681 -0.34557,-1.80776 -0.0637,-3.47504 0.62647,-3.70508 0.69013,-0.23006 1.35293,-2.94759 1.47288,-6.03898 0.12,-3.0914 0.73804,-5.6241 1.37353,-5.62825 0.63548,-0.004 0.8687,-1.50755 0.51823,-3.34088 -0.35047,-1.83333 -0.0504,-3.33333 0.66667,-3.33333 0.71713,0 1.01713,-1.5 0.66666,-3.33334 C 275.32321,297.5 275.62327,296 276.34041,296 c 0.71717,0 0.99014,-1.2 0.6066,-2.66667 -0.38355,-1.46666 -0.0836,-2.66666 0.6666,-2.66666 0.75016,0 1.0772,-1.5 0.72673,-3.33334 C 277.98987,285.5 278.28994,284 279.00701,284 c 0.71713,0 1.01713,-1.5 0.66666,-3.33333 -0.35046,-1.83334 -0.0504,-3.33334 0.66674,-3.33334 0.71717,0 0.99014,-1.2 0.6066,-2.66666 C 280.56346,273.2 280.86341,272 281.61361,272 c 0.75016,0 1.0772,-1.5 0.72673,-3.33333 -0.35047,-1.83334 -0.0504,-3.33334 0.66667,-3.33334 0.71713,0 1.02113,-1.47906 0.67556,-3.28681 -0.34558,-1.80776 -0.0637,-3.47504 0.62646,-3.70508 0.69014,-0.23005 1.35294,-2.94759 1.47288,-6.03897 0.12,-3.0914 0.73804,-5.62411 1.37354,-5.62826 0.63548,-0.004 0.86869,-1.50754 0.51822,-3.34088 C 287.32321,241.5 287.62327,240 288.34034,240 c 0.71713,0 1.01713,-1.5 0.66667,-3.33333 -0.35047,-1.83334 -0.0504,-3.33334 0.66673,-3.33334 0.71717,0 0.99015,-1.2 0.6066,-2.66666 C 289.89679,229.2 290.19674,228 290.94694,228 c 0.75016,0 1.0772,-1.5 0.72673,-3.33333 -0.35046,-1.83334 -0.0504,-3.33334 0.66667,-3.33334 0.71713,0 1.01713,-1.5 0.66667,-3.33333 -0.35047,-1.83333 -0.0504,-3.33333 0.66673,-3.33333 0.71717,0 0.99015,-1.2 0.6066,-2.66667 -0.38355,-1.46667 -0.0836,-2.66667 0.6666,-2.66667 0.75016,0 1.0772,-1.5 0.72673,-3.33333 -0.35046,-1.83333 -0.0504,-3.33333 0.66667,-3.33333 0.71713,0 1.01713,-1.5 0.66667,-3.33334 C 296.65654,197.5 296.95661,196 297.67374,196 c 0.71717,0 0.99015,-1.2 0.6066,-2.66667 -0.38355,-1.46666 -0.15352,-2.66666 0.51116,-2.66666 0.66468,0 1.20851,-1.10699 1.20851,-2.45996 0,-2.87308 -18.61624,-4.20671 -58.72198,-4.20671 -21.11046,0 -31.45029,-2.60924 -22.35457,-5.64115 0.71887,-0.23962 1.40517,-2.965 1.52512,-6.05638 0.12,-3.0914 0.73807,-5.62411 1.3736,-5.62826 0.63553,-0.004 0.84171,-1.20754 0.45816,-2.67421 -0.38355,-1.46667 -0.0836,-2.66667 0.66667,-2.66667 0.75021,0 1.04956,-1.2025 0.66521,-2.67222 -1.08368,-4.14399 -3.34621,-4.08334 137.77083,-3.69396 l 132.71637,0.36618 -3.2619,14.3149 -3.26191,14.31489 -42.12113,0.35177 c -39.17427,0.32716 -42.10818,0.51502 -41.93595,2.68511 0.10187,1.28333 -0.41813,2.33333 -1.15551,2.33333 -0.73738,0 -1.02689,1.2 -0.64334,2.66667 0.38354,1.46667 0.0836,2.66667 -0.6666,2.66667 -0.75016,0 -1.0772,1.5 -0.72674,3.33333 0.35047,1.83333 0.0504,3.33333 -0.66666,3.33333 -0.71714,0 -1.02114,1.47907 -0.67556,3.28682 0.34557,1.80776 0.0636,3.47504 -0.62647,3.70508 -0.69013,0.23005 -1.35293,2.94758 -1.47288,6.03897 -0.12,3.0914 -0.73804,5.62411 -1.37353,5.62825 -0.63548,0.004 -0.8687,1.50755 -0.51823,3.34088 0.35047,1.83334 0.0504,3.33334 -0.66667,3.33334 -0.71713,0 -1.01713,1.5 -0.66666,3.33333 0.35046,1.83333 0.0504,3.33333 -0.66674,3.33333 -0.71717,0 -0.99014,1.2 -0.6066,2.66667 0.38355,1.46667 0.0836,2.66667 -0.6666,2.66667 -0.75016,0 -1.0772,1.5 -0.72673,3.33333 0.35047,1.83333 0.0504,3.33333 -0.66667,3.33333 -0.71713,0 -1.01713,1.5 -0.66666,3.33334 0.35046,1.83333 0.0504,3.33333 -0.66674,3.33333 -0.71717,0 -0.99014,1.2 -0.6066,2.66667 0.38355,1.46666 0.0836,2.66666 -0.6666,2.66666 -0.75016,0 -1.0772,1.5 -0.72673,3.33334 0.35047,1.83333 0.0504,3.33333 -0.66667,3.33333 -0.71713,0 -1.02113,1.47907 -0.67556,3.28681 0.34558,1.80776 0.0636,3.47504 -0.62646,3.70508 -0.69014,0.23006 -1.35294,2.94759 -1.47288,6.03898 -0.12,3.0914 -0.73804,5.6241 -1.37354,5.62825 -0.63548,0.004 -0.86869,1.50755 -0.51822,3.34088 0.35046,1.83333 0.0504,3.33333 -0.66667,3.33333 -0.71713,0 -1.01713,1.5 -0.66667,3.33334 0.35047,1.83333 0.0504,3.33333 -0.66673,3.33333 -0.71717,0 -0.99015,1.2 -0.6066,2.66667 0.38355,1.46666 0.0836,2.66666 -0.6666,2.66666 -0.75016,0 -1.0772,1.5 -0.72673,3.33334 0.35046,1.83333 0.0504,3.33333 -0.66667,3.33333 -0.71713,0 -1.01713,1.5 -0.66667,3.33333 0.35047,1.83334 0.0504,3.33334 -0.66673,3.33334 -0.71717,0 -0.99015,1.2 -0.6066,2.66666 0.38355,1.46667 0.0836,2.66667 -0.6666,2.66667 -0.75016,0 -1.0772,1.5 -0.72673,3.33333 0.35046,1.83334 0.0504,3.33334 -0.66667,3.33334 -0.71713,0 -1.02113,1.47906 -0.67556,3.28681 0.34557,1.80776 0.0636,3.47504 -0.62647,3.70508 -0.69013,0.23005 -1.35293,2.94759 -1.47288,6.03897 -0.12,3.0914 -0.73804,5.62411 -1.37353,5.62826 -0.63548,0.004 -0.86869,1.50754 -0.51823,3.34088 0.35047,1.83333 0.0504,3.33333 -0.66666,3.33333 -0.71714,0 -1.01714,1.5 -0.66667,3.33333 0.35047,1.83334 0.0504,3.33334 -0.66673,3.33334 -0.71718,0 -0.99015,1.2 -0.6066,2.66666 0.38354,1.46667 0.0836,2.66667 -0.6666,2.66667 -0.75017,0 -1.07721,1.5 -0.72674,3.33333 0.35047,1.83334 0.0504,3.33334 -0.66667,3.33334 -0.71713,0 -1.01713,1.5 -0.66666,3.33333 0.35046,1.83333 0.0504,3.33333 -0.66674,3.33333 -0.71717,0 -0.99014,1.2 -0.6066,2.66667 0.38355,1.46667 0.0836,2.66667 -0.6666,2.66667 -0.75016,0 -1.0772,1.5 -0.72673,3.33333 0.35047,1.83333 0.0504,3.33333 -0.66667,3.33333 -0.71713,0 -1.01713,1.5 -0.66666,3.33334 0.35046,1.83333 0.0504,3.33333 -0.66674,3.33333 -0.71717,0 -0.99014,1.2 -0.6066,2.66667 0.38355,1.46666 0.0836,2.66666 -0.6666,2.66666 -0.75016,0 -1.0772,1.5 -0.72673,3.33334 0.35047,1.83333 0.0504,3.33333 -0.66667,3.33333 -0.71713,0 -1.01713,1.5 -0.66666,3.33333 0.35046,1.83334 0.0504,3.33334 -0.66667,3.33334 -0.71713,0 -1.01713,1.5 -0.66667,3.33333 0.35047,1.83333 0.0504,3.33333 -0.66673,3.33333 -0.71717,0 -0.99015,1.2 -0.6066,2.66667 0.38355,1.46667 0.0836,2.66667 -0.6666,2.66667 -0.75016,0 -1.0772,1.5 -0.72673,3.33333 0.35046,1.83333 0.0504,3.33333 -0.66667,3.33333 -0.71713,0 -1.01713,1.5 -0.66667,3.33334 0.35047,1.83333 0.0504,3.33333 -0.66673,3.33333 -0.71717,0 -0.99015,1.2 -0.6066,2.66667 0.38355,1.46666 0.0836,2.66666 -0.6666,2.66666 -0.75016,0 -1.0772,1.5 -0.72673,3.33334 0.35046,1.83333 0.0504,3.33333 -0.66667,3.33333 -0.71713,0 -1.01713,1.5 -0.66667,3.33333 0.35047,1.83334 0.0504,3.33334 -0.66673,3.33334 -0.71717,0 -0.99015,1.2 -0.6066,2.66666 0.38355,1.46667 0.0836,2.66667 -0.6666,2.66667 -0.75016,0 -1.0772,1.5 -0.72673,3.33333 0.35046,1.83334 0.1204,3.33334 -0.51123,3.33334 -0.63164,0 -1.14844,1.2 -1.14844,2.66666 0,3.61242 -101.76605,4.27014 -103.14884,0.66667 z"
       id="path454" />
  </g>
</svg>
