<?xml version="1.0" encoding="UTF-8" standalone="no"?>
<!-- Created with Inkscape (http://www.inkscape.org/) -->

<svg
   version="1.1"
   id="svg1765"
   width="1245.3347"
   height="778.55225"
   viewBox="0 0 1245.3347 778.55225"
   sodipodi:docname="vol_for_enamel_flat v2.svg"
   inkscape:version="1.2.1 (9c6d41e, 2022-07-14)"
   xmlns:inkscape="http://www.inkscape.org/namespaces/inkscape"
   xmlns:sodipodi="http://sodipodi.sourceforge.net/DTD/sodipodi-0.dtd"
   xmlns="http://www.w3.org/2000/svg"
   xmlns:svg="http://www.w3.org/2000/svg">
  <defs
     id="defs1769" />
  <sodipodi:namedview
     id="namedview1767"
     pagecolor="#ffffff"
     bordercolor="#111111"
     borderopacity="1"
     inkscape:showpageshadow="0"
     inkscape:pageopacity="0"
     inkscape:pagecheckerboard="1"
     inkscape:deskcolor="#d1d1d1"
     showgrid="false"
     inkscape:zoom="0.30102041"
     inkscape:cx="592.98305"
     inkscape:cy="458.44068"
     inkscape:window-width="1665"
     inkscape:window-height="1078"
     inkscape:window-x="3651"
     inkscape:window-y="97"
     inkscape:window-maximized="0"
     inkscape:current-layer="g1771" />
  <g
     inkscape:groupmode="layer"
     inkscape:label="Image"
     id="g1771"
     transform="translate(-2.6659774,-2.6815419)">
    <path
       style="fill:#000000;stroke-width:1.33333"
       d="M 166.51278,776.60547 C 93.064033,764.6262 37.09308,716.92301 13.358183,646.07417 2.3824265,613.31147 2.6666667,620.03125 2.6666667,393.31321 V 197.6366 l 4.678685,-29.33911 C 19.424451,92.551859 67.386351,36.133096 139.6209,12.698522 172.56434,2.0109019 138.20888,2.721034 623.33335,2.7001139 L 1054,2.6815419 1082.8551,7.2948405 C 1157.5346,19.234487 1213.3648,66.453525 1237.3085,137.92583 1248.2843,170.68853 1248,163.96875 1248,390.68679 V 586.3634 l -4.6786,29.33911 c -12.0792,75.74564 -60.041,132.1644 -132.2756,155.59897 -32.9738,10.69748 1.6468,9.99204 -485.04578,9.88345 l -432.00001,-0.0964 -27.48723,-4.48308 z m 892.82062,-85.98694 c 52.0199,-5.89382 87.7089,-40.00009 96.1383,-91.8748 l 3.1541,-19.4104 0.021,-187.05254 c 0.022,-197.76454 -0.1767,-204.91702 -6.1989,-223.61412 -13.232,-41.0818 -44.235,-67.1554 -87.7807,-73.823797 L 1046,91.984343 624.66668,92.003116 c -277.45538,0.0124 -425.43113,0.483045 -433.33334,1.37836 -52.01998,5.893827 -87.70896,40.000094 -96.138304,91.874794 l -3.15408,19.4104 -0.02048,187.05255 c -0.0132,120.9272 0.471546,191.62964 1.371336,200 5.532555,51.46709 40.085578,88.78073 89.882828,97.06404 l 17.39203,2.893 423.33334,0.15093 c 279.93252,0.0997 427.39829,-0.30961 435.33339,-1.20865 z M 634.66668,551.77891 C 557.11664,544.48164 521.28829,499.71008 530.81143,422 c 10.42666,-85.08317 80.99976,-132.50479 188.52192,-126.67735 83.26842,4.51294 115.44086,31.87336 117.64051,100.04507 3.57492,110.7946 -71.36393,168.73261 -202.30718,156.41119 z m 46.1408,-33.19926 c 35.97398,-22.23314 63.63757,-173.04882 34.94991,-190.5391 -35.6312,-21.72362 -76.07372,55.58713 -76.3538,145.95945 -0.13253,42.76895 16.08333,60.22861 41.40389,44.57965 z m -404.05077,21.08702 c -0.86496,-9.13712 -20.7567,-351.68092 -20.7567,-357.43883 v -3.56117 h 62.53575 62.53576 l 0.8275,7.66666 c 0.45514,4.21667 5.31334,64.61596 10.79602,134.22064 5.48266,69.6047 10.2692,126.8547 10.63673,127.22223 1.03933,1.03935 -1.74676,6.67249 66.49408,-134.44287 l 64.79999,-134 23.86603,-0.36281 23.86603,-0.36281 L 496.25533,363.30385 410.15278,548 H 343.8492 277.54559 Z m 577.96919,6.66666 c 0.0325,-0.91666 18.53268,-88.96666 41.11135,-195.66666 l 41.05215,-194 55.73216,-0.34811 55.73214,-0.34811 -0.7311,4.34811 C 1046.879,164.74072 967.15544,539.5088 965.79016,545 l -0.74589,3 h -55.18879 c -43.29372,0 -55.17603,-0.35923 -55.12958,-1.66667 z"
       id="path288" />
  </g>
</svg>
